<?xml version="1.0" encoding="UTF-8" standalone="no"?>
<!DOCTYPE svg PUBLIC "-//W3C//DTD SVG 1.1//EN"
 "http://www.w3.org/Graphics/SVG/1.1/DTD/svg11.dtd">
<!-- Generated by graphviz version 2.43.0 (0)
 -->
<!-- Title: %3 Pages: 1 -->
<svg width="1451pt" height="238pt"
 viewBox="0.00 0.00 1450.50 237.74" xmlns="http://www.w3.org/2000/svg" xmlns:xlink="http://www.w3.org/1999/xlink">
<g id="graph0" class="graph" transform="scale(1 1) rotate(0) translate(36 201.74)">
<title>%3</title>
<polygon fill="dimgray" stroke="transparent" points="-36,36 -36,-201.74 1414.5,-201.74 1414.5,36 -36,36"/>
<text text-anchor="middle" x="689.25" y="-150.54" font-family="Helvetica,sans-Serif" font-size="14.00">Sweep&#39;s Plan &amp; Progress</text>
<!-- start -->
<g id="node1" class="node">
<title>start</title>
</g>
<!-- fcf5d698&#45;0f39&#45;4af3&#45;a84d&#45;f7c1289aa033 -->
<g id="node3" class="node">
<title>fcf5d698&#45;0f39&#45;4af3&#45;a84d&#45;f7c1289aa033</title>
<ellipse fill="yellow" stroke="black" cx="223" cy="-99.87" rx="95.42" ry="26.74"/>
<text text-anchor="middle" x="223" y="-103.67" font-family="Helvetica,sans-Serif" font-size="14.00">⋯ Modify</text>
<text text-anchor="middle" x="223" y="-88.67" font-family="Helvetica,sans-Serif" font-size="14.00">analyze/views.py</text>
</g>
<!-- start&#45;&gt;fcf5d698&#45;0f39&#45;4af3&#45;a84d&#45;f7c1289aa033 -->
<g id="edge8" class="edge">
<title>start&#45;&gt;fcf5d698&#45;0f39&#45;4af3&#45;a84d&#45;f7c1289aa033</title>
<path fill="none" stroke="black" d="M76.66,-99.87C80.07,-99.87 96.46,-99.87 117.12,-99.87"/>
<polygon fill="black" stroke="black" points="117.22,-103.37 127.22,-99.87 117.22,-96.37 117.22,-103.37"/>
<text text-anchor="middle" x="102.02" y="-106.67" font-family="Helvetica,sans-Serif" font-size="14.00">Start</text>
</g>
<!-- end -->
<g id="node2" class="node">
<title>end</title>
</g>
<!-- d5bd361e&#45;b9a9&#45;4af4&#45;a500&#45;ba40b5cc8d98 -->
<g id="node4" class="node">
<title>d5bd361e&#45;b9a9&#45;4af4&#45;a500&#45;ba40b5cc8d98</title>
<ellipse fill="white" stroke="black" cx="501" cy="-99.87" rx="86.03" ry="26.74"/>
<text text-anchor="middle" x="501" y="-103.67" font-family="Helvetica,sans-Serif" font-size="14.00">▶ Modify</text>
<text text-anchor="middle" x="501" y="-88.67" font-family="Helvetica,sans-Serif" font-size="14.00">analyze/urls.py</text>
</g>
<!-- fcf5d698&#45;0f39&#45;4af3&#45;a84d&#45;f7c1289aa033&#45;&gt;d5bd361e&#45;b9a9&#45;4af4&#45;a500&#45;ba40b5cc8d98 -->
<g id="edge2" class="edge">
<title>fcf5d698&#45;0f39&#45;4af3&#45;a84d&#45;f7c1289aa033&#45;&gt;d5bd361e&#45;b9a9&#45;4af4&#45;a500&#45;ba40b5cc8d98</title>
<path fill="none" stroke="black" d="M318.56,-99.87C347.14,-99.87 375.72,-99.87 404.3,-99.87"/>
<polygon fill="black" stroke="black" points="404.41,-103.37 414.41,-99.87 404.41,-96.37 404.41,-103.37"/>
</g>
<!-- 7dabf9fb&#45;5232&#45;403c&#45;82fa&#45;f9e2f7ebe5a7 -->
<g id="node7" class="node">
<title>7dabf9fb&#45;5232&#45;403c&#45;82fa&#45;f9e2f7ebe5a7</title>
<polygon fill="white" stroke="black" points="326,-36 0,-36 0,0 326,0 326,-36"/>
<text text-anchor="middle" x="163" y="-14.3" font-family="Helvetica,sans-Serif" font-size="14.00">▶ Run GitHub Actions for `analyze/views.py`</text>
</g>
<!-- fcf5d698&#45;0f39&#45;4af3&#45;a84d&#45;f7c1289aa033&#45;&gt;7dabf9fb&#45;5232&#45;403c&#45;82fa&#45;f9e2f7ebe5a7 -->
<g id="edge1" class="edge">
<title>fcf5d698&#45;0f39&#45;4af3&#45;a84d&#45;f7c1289aa033&#45;&gt;7dabf9fb&#45;5232&#45;403c&#45;82fa&#45;f9e2f7ebe5a7</title>
<path fill="none" stroke="black" stroke-dasharray="5,2" d="M203.69,-73.16C196.76,-63.94 188.96,-53.56 182.06,-44.37"/>
<polygon fill="black" stroke="black" points="184.83,-42.23 176.02,-36.34 179.23,-46.43 184.83,-42.23"/>
</g>
<!-- 1adffffe&#45;7457&#45;4865&#45;ba25&#45;144687a24652 -->
<g id="node5" class="node">
<title>1adffffe&#45;7457&#45;4865&#45;ba25&#45;144687a24652</title>
<ellipse fill="white" stroke="black" cx="860" cy="-99.87" rx="124.4" ry="26.74"/>
<text text-anchor="middle" x="860" y="-103.67" font-family="Helvetica,sans-Serif" font-size="14.00">▶ Modify</text>
<text text-anchor="middle" x="860" y="-88.67" font-family="Helvetica,sans-Serif" font-size="14.00">templates/runoob.html</text>
</g>
<!-- d5bd361e&#45;b9a9&#45;4af4&#45;a500&#45;ba40b5cc8d98&#45;&gt;1adffffe&#45;7457&#45;4865&#45;ba25&#45;144687a24652 -->
<g id="edge4" class="edge">
<title>d5bd361e&#45;b9a9&#45;4af4&#45;a500&#45;ba40b5cc8d98&#45;&gt;1adffffe&#45;7457&#45;4865&#45;ba25&#45;144687a24652</title>
<path fill="none" stroke="black" d="M587.59,-99.87C633.53,-99.87 679.46,-99.87 725.39,-99.87"/>
<polygon fill="black" stroke="black" points="725.5,-103.37 735.5,-99.87 725.5,-96.37 725.5,-103.37"/>
</g>
<!-- 86346066&#45;e4e4&#45;477d&#45;8791&#45;dc9487da444f -->
<g id="node8" class="node">
<title>86346066&#45;e4e4&#45;477d&#45;8791&#45;dc9487da444f</title>
<polygon fill="white" stroke="black" points="658,-36 344,-36 344,0 658,0 658,-36"/>
<text text-anchor="middle" x="501" y="-14.3" font-family="Helvetica,sans-Serif" font-size="14.00">▶ Run GitHub Actions for `analyze/urls.py`</text>
</g>
<!-- d5bd361e&#45;b9a9&#45;4af4&#45;a500&#45;ba40b5cc8d98&#45;&gt;86346066&#45;e4e4&#45;477d&#45;8791&#45;dc9487da444f -->
<g id="edge3" class="edge">
<title>d5bd361e&#45;b9a9&#45;4af4&#45;a500&#45;ba40b5cc8d98&#45;&gt;86346066&#45;e4e4&#45;477d&#45;8791&#45;dc9487da444f</title>
<path fill="none" stroke="black" stroke-dasharray="5,2" d="M501,-72.72C501,-64.27 501,-54.89 501,-46.36"/>
<polygon fill="black" stroke="black" points="504.5,-46.15 501,-36.15 497.5,-46.15 504.5,-46.15"/>
</g>
<!-- 01f79988&#45;5dae&#45;4cd4&#45;94ab&#45;de067b378f94 -->
<g id="node6" class="node">
<title>01f79988&#45;5dae&#45;4cd4&#45;94ab&#45;de067b378f94</title>
<ellipse fill="white" stroke="black" cx="1164" cy="-99.87" rx="88.28" ry="26.74"/>
<text text-anchor="middle" x="1164" y="-103.67" font-family="Helvetica,sans-Serif" font-size="14.00">▶ Create</text>
<text text-anchor="middle" x="1164" y="-88.67" font-family="Helvetica,sans-Serif" font-size="14.00">analyze/utils.py</text>
</g>
<!-- 1adffffe&#45;7457&#45;4865&#45;ba25&#45;144687a24652&#45;&gt;01f79988&#45;5dae&#45;4cd4&#45;94ab&#45;de067b378f94 -->
<g id="edge6" class="edge">
<title>1adffffe&#45;7457&#45;4865&#45;ba25&#45;144687a24652&#45;&gt;01f79988&#45;5dae&#45;4cd4&#45;94ab&#45;de067b378f94</title>
<path fill="none" stroke="black" d="M984.69,-99.87C1011.5,-99.87 1038.31,-99.87 1065.12,-99.87"/>
<polygon fill="black" stroke="black" points="1065.39,-103.37 1075.39,-99.87 1065.39,-96.37 1065.39,-103.37"/>
</g>
<!-- cb70efb1&#45;9f21&#45;4412&#45;93be&#45;76518efd9e7b -->
<g id="node9" class="node">
<title>cb70efb1&#45;9f21&#45;4412&#45;93be&#45;76518efd9e7b</title>
<polygon fill="white" stroke="black" points="1043.5,-36 676.5,-36 676.5,0 1043.5,0 1043.5,-36"/>
<text text-anchor="middle" x="860" y="-14.3" font-family="Helvetica,sans-Serif" font-size="14.00">▶ Run GitHub Actions for `templates/runoob.html`</text>
</g>
<!-- 1adffffe&#45;7457&#45;4865&#45;ba25&#45;144687a24652&#45;&gt;cb70efb1&#45;9f21&#45;4412&#45;93be&#45;76518efd9e7b -->
<g id="edge5" class="edge">
<title>1adffffe&#45;7457&#45;4865&#45;ba25&#45;144687a24652&#45;&gt;cb70efb1&#45;9f21&#45;4412&#45;93be&#45;76518efd9e7b</title>
<path fill="none" stroke="black" stroke-dasharray="5,2" d="M860,-72.72C860,-64.27 860,-54.89 860,-46.36"/>
<polygon fill="black" stroke="black" points="863.5,-46.15 860,-36.15 856.5,-46.15 863.5,-46.15"/>
</g>
<!-- 01f79988&#45;5dae&#45;4cd4&#45;94ab&#45;de067b378f94&#45;&gt;end -->
<g id="edge9" class="edge">
<title>01f79988&#45;5dae&#45;4cd4&#45;94ab&#45;de067b378f94&#45;&gt;end</title>
<path fill="none" stroke="black" d="M1252.72,-99.87C1271.33,-99.87 1288.51,-99.87 1299.11,-99.87"/>
<polygon fill="black" stroke="black" points="1299.31,-103.37 1309.31,-99.87 1299.31,-96.37 1299.31,-103.37"/>
<text text-anchor="middle" x="1280.94" y="-106.67" font-family="Helvetica,sans-Serif" font-size="14.00">Finish</text>
</g>
<!-- 2ef31369&#45;b569&#45;48f4&#45;8700&#45;e6cad54d64fc -->
<g id="node10" class="node">
<title>2ef31369&#45;b569&#45;48f4&#45;8700&#45;e6cad54d64fc</title>
<polygon fill="white" stroke="black" points="1378.5,-36 1061.5,-36 1061.5,0 1378.5,0 1378.5,-36"/>
<text text-anchor="middle" x="1220" y="-14.3" font-family="Helvetica,sans-Serif" font-size="14.00">▶ Run GitHub Actions for `analyze/utils.py`</text>
</g>
<!-- 01f79988&#45;5dae&#45;4cd4&#45;94ab&#45;de067b378f94&#45;&gt;2ef31369&#45;b569&#45;48f4&#45;8700&#45;e6cad54d64fc -->
<g id="edge7" class="edge">
<title>01f79988&#45;5dae&#45;4cd4&#45;94ab&#45;de067b378f94&#45;&gt;2ef31369&#45;b569&#45;48f4&#45;8700&#45;e6cad54d64fc</title>
<path fill="none" stroke="black" stroke-dasharray="5,2" d="M1182.03,-73.16C1188.42,-64.04 1195.62,-53.77 1202.01,-44.65"/>
<polygon fill="black" stroke="black" points="1204.97,-46.53 1207.84,-36.34 1199.24,-42.52 1204.97,-46.53"/>
</g>
</g>
</svg>
