<?xml version="1.0" encoding="UTF-8" standalone="no"?>
<!DOCTYPE svg PUBLIC "-//W3C//DTD SVG 1.1//EN"
 "http://www.w3.org/Graphics/SVG/1.1/DTD/svg11.dtd">
<!-- Generated by graphviz version 2.43.0 (0)
 -->
<!-- Title: %3 Pages: 1 -->
<svg width="398pt" height="238pt"
 viewBox="0.00 0.00 398.00 237.74" xmlns="http://www.w3.org/2000/svg" xmlns:xlink="http://www.w3.org/1999/xlink">
<g id="graph0" class="graph" transform="scale(1 1) rotate(0) translate(36 201.74)">
<title>%3</title>
<polygon fill="dimgray" stroke="transparent" points="-36,36 -36,-201.74 362,-201.74 362,36 -36,36"/>
<text text-anchor="middle" x="163" y="-150.54" font-family="Helvetica,sans-Serif" font-size="14.00">Sweep&#39;s Plan &amp; Progress</text>
<!-- start -->
<g id="node1" class="node">
<title>start</title>
</g>
<!-- 665dfb0c&#45;b635&#45;4912&#45;8d73&#45;88360ed1fc78 -->
<g id="node3" class="node">
<title>665dfb0c&#45;b635&#45;4912&#45;8d73&#45;88360ed1fc78</title>
<ellipse fill="yellow" stroke="black" cx="163" cy="-99.87" rx="95.42" ry="26.74"/>
<text text-anchor="middle" x="163" y="-103.67" font-family="Helvetica,sans-Serif" font-size="14.00">⋯ Modify</text>
<text text-anchor="middle" x="163" y="-88.67" font-family="Helvetica,sans-Serif" font-size="14.00">analyze/views.py</text>
</g>
<!-- start&#45;&gt;665dfb0c&#45;b635&#45;4912&#45;8d73&#45;88360ed1fc78 -->
<g id="edge2" class="edge">
<title>start&#45;&gt;665dfb0c&#45;b635&#45;4912&#45;8d73&#45;88360ed1fc78</title>
<path fill="none" stroke="black" d="M16.66,-99.87C20.07,-99.87 36.46,-99.87 57.12,-99.87"/>
<polygon fill="black" stroke="black" points="57.22,-103.37 67.22,-99.87 57.22,-96.37 57.22,-103.37"/>
<text text-anchor="middle" x="42.02" y="-106.67" font-family="Helvetica,sans-Serif" font-size="14.00">Start</text>
</g>
<!-- end -->
<g id="node2" class="node">
<title>end</title>
</g>
<!-- 665dfb0c&#45;b635&#45;4912&#45;8d73&#45;88360ed1fc78&#45;&gt;end -->
<g id="edge3" class="edge">
<title>665dfb0c&#45;b635&#45;4912&#45;8d73&#45;88360ed1fc78&#45;&gt;end</title>
<path fill="none" stroke="black" d="M258.59,-99.87C277.42,-99.87 294.61,-99.87 305.17,-99.87"/>
<polygon fill="black" stroke="black" points="305.32,-103.37 315.32,-99.87 305.32,-96.37 305.32,-103.37"/>
<text text-anchor="middle" x="286.98" y="-106.67" font-family="Helvetica,sans-Serif" font-size="14.00">Finish</text>
</g>
<!-- 861da86e&#45;30ab&#45;47de&#45;bdd2&#45;eda6c178257c -->
<g id="node4" class="node">
<title>861da86e&#45;30ab&#45;47de&#45;bdd2&#45;eda6c178257c</title>
<polygon fill="white" stroke="black" points="326,-36 0,-36 0,0 326,0 326,-36"/>
<text text-anchor="middle" x="163" y="-14.3" font-family="Helvetica,sans-Serif" font-size="14.00">▶ Run GitHub Actions for `analyze/views.py`</text>
</g>
<!-- 665dfb0c&#45;b635&#45;4912&#45;8d73&#45;88360ed1fc78&#45;&gt;861da86e&#45;30ab&#45;47de&#45;bdd2&#45;eda6c178257c -->
<g id="edge1" class="edge">
<title>665dfb0c&#45;b635&#45;4912&#45;8d73&#45;88360ed1fc78&#45;&gt;861da86e&#45;30ab&#45;47de&#45;bdd2&#45;eda6c178257c</title>
<path fill="none" stroke="black" stroke-dasharray="5,2" d="M163,-72.72C163,-64.27 163,-54.89 163,-46.36"/>
<polygon fill="black" stroke="black" points="166.5,-46.15 163,-36.15 159.5,-46.15 166.5,-46.15"/>
</g>
</g>
</svg>
