<?xml version="1.0" encoding="UTF-8" standalone="no"?>
<!DOCTYPE svg PUBLIC "-//W3C//DTD SVG 1.1//EN"
 "http://www.w3.org/Graphics/SVG/1.1/DTD/svg11.dtd">
<!-- Generated by graphviz version 2.43.0 (0)
 -->
<!-- Title: %3 Pages: 1 -->
<svg width="742pt" height="238pt"
 viewBox="0.00 0.00 742.00 237.74" xmlns="http://www.w3.org/2000/svg" xmlns:xlink="http://www.w3.org/1999/xlink">
<g id="graph0" class="graph" transform="scale(1 1) rotate(0) translate(36 201.74)">
<title>%3</title>
<polygon fill="dimgray" stroke="transparent" points="-36,36 -36,-201.74 706,-201.74 706,36 -36,36"/>
<text text-anchor="middle" x="335" y="-150.54" font-family="Helvetica,sans-Serif" font-size="14.00">Sweep&#39;s Plan &amp; Progress</text>
<!-- start -->
<g id="node1" class="node">
<title>start</title>
</g>
<!-- 7ec50e85&#45;f51b&#45;4c4d&#45;844d&#45;99397c38157c -->
<g id="node3" class="node">
<title>7ec50e85&#45;f51b&#45;4c4d&#45;844d&#45;99397c38157c</title>
<ellipse fill="yellow" stroke="black" cx="222" cy="-99.87" rx="95.42" ry="26.74"/>
<text text-anchor="middle" x="222" y="-103.67" font-family="Helvetica,sans-Serif" font-size="14.00">⋯ Modify</text>
<text text-anchor="middle" x="222" y="-88.67" font-family="Helvetica,sans-Serif" font-size="14.00">analyze/views.py</text>
</g>
<!-- start&#45;&gt;7ec50e85&#45;f51b&#45;4c4d&#45;844d&#45;99397c38157c -->
<g id="edge4" class="edge">
<title>start&#45;&gt;7ec50e85&#45;f51b&#45;4c4d&#45;844d&#45;99397c38157c</title>
<path fill="none" stroke="black" d="M75.66,-99.87C79.07,-99.87 95.46,-99.87 116.12,-99.87"/>
<polygon fill="black" stroke="black" points="116.22,-103.37 126.22,-99.87 116.22,-96.37 116.22,-103.37"/>
<text text-anchor="middle" x="101.02" y="-106.67" font-family="Helvetica,sans-Serif" font-size="14.00">Start</text>
</g>
<!-- end -->
<g id="node2" class="node">
<title>end</title>
</g>
<!-- 08596909&#45;ac2c&#45;4e92&#45;ad8d&#45;10ae92a3b023 -->
<g id="node4" class="node">
<title>08596909&#45;ac2c&#45;4e92&#45;ad8d&#45;10ae92a3b023</title>
<ellipse fill="white" stroke="black" cx="478" cy="-99.87" rx="95.42" ry="26.74"/>
<text text-anchor="middle" x="478" y="-103.67" font-family="Helvetica,sans-Serif" font-size="14.00">▶ Modify</text>
<text text-anchor="middle" x="478" y="-88.67" font-family="Helvetica,sans-Serif" font-size="14.00">analyze/views.py</text>
</g>
<!-- 7ec50e85&#45;f51b&#45;4c4d&#45;844d&#45;99397c38157c&#45;&gt;08596909&#45;ac2c&#45;4e92&#45;ad8d&#45;10ae92a3b023 -->
<g id="edge2" class="edge">
<title>7ec50e85&#45;f51b&#45;4c4d&#45;844d&#45;99397c38157c&#45;&gt;08596909&#45;ac2c&#45;4e92&#45;ad8d&#45;10ae92a3b023</title>
<path fill="none" stroke="black" d="M317.5,-99.87C335.75,-99.87 354,-99.87 372.25,-99.87"/>
<polygon fill="black" stroke="black" points="372.39,-103.37 382.39,-99.87 372.39,-96.37 372.39,-103.37"/>
</g>
<!-- 704c593f&#45;a73f&#45;4911&#45;b80d&#45;ca779c80e7f1 -->
<g id="node5" class="node">
<title>704c593f&#45;a73f&#45;4911&#45;b80d&#45;ca779c80e7f1</title>
<polygon fill="white" stroke="black" points="326,-36 0,-36 0,0 326,0 326,-36"/>
<text text-anchor="middle" x="163" y="-14.3" font-family="Helvetica,sans-Serif" font-size="14.00">▶ Run GitHub Actions for `analyze/views.py`</text>
</g>
<!-- 7ec50e85&#45;f51b&#45;4c4d&#45;844d&#45;99397c38157c&#45;&gt;704c593f&#45;a73f&#45;4911&#45;b80d&#45;ca779c80e7f1 -->
<g id="edge1" class="edge">
<title>7ec50e85&#45;f51b&#45;4c4d&#45;844d&#45;99397c38157c&#45;&gt;704c593f&#45;a73f&#45;4911&#45;b80d&#45;ca779c80e7f1</title>
<path fill="none" stroke="black" stroke-dasharray="5,2" d="M203.01,-73.16C196.27,-64.04 188.69,-53.77 181.95,-44.65"/>
<polygon fill="black" stroke="black" points="184.56,-42.3 175.81,-36.34 178.93,-46.46 184.56,-42.3"/>
</g>
<!-- 08596909&#45;ac2c&#45;4e92&#45;ad8d&#45;10ae92a3b023&#45;&gt;end -->
<g id="edge5" class="edge">
<title>08596909&#45;ac2c&#45;4e92&#45;ad8d&#45;10ae92a3b023&#45;&gt;end</title>
<path fill="none" stroke="black" d="M573.59,-99.87C592.42,-99.87 609.61,-99.87 620.17,-99.87"/>
<polygon fill="black" stroke="black" points="620.32,-103.37 630.32,-99.87 620.32,-96.37 620.32,-103.37"/>
<text text-anchor="middle" x="601.98" y="-106.67" font-family="Helvetica,sans-Serif" font-size="14.00">Finish</text>
</g>
<!-- a21dcba2&#45;5f70&#45;4d47&#45;a6f3&#45;511e811f2de2 -->
<g id="node6" class="node">
<title>a21dcba2&#45;5f70&#45;4d47&#45;a6f3&#45;511e811f2de2</title>
<polygon fill="white" stroke="black" points="670,-36 344,-36 344,0 670,0 670,-36"/>
<text text-anchor="middle" x="507" y="-14.3" font-family="Helvetica,sans-Serif" font-size="14.00">▶ Run GitHub Actions for `analyze/views.py`</text>
</g>
<!-- 08596909&#45;ac2c&#45;4e92&#45;ad8d&#45;10ae92a3b023&#45;&gt;a21dcba2&#45;5f70&#45;4d47&#45;a6f3&#45;511e811f2de2 -->
<g id="edge3" class="edge">
<title>08596909&#45;ac2c&#45;4e92&#45;ad8d&#45;10ae92a3b023&#45;&gt;a21dcba2&#45;5f70&#45;4d47&#45;a6f3&#45;511e811f2de2</title>
<path fill="none" stroke="black" stroke-dasharray="5,2" d="M487.5,-72.72C490.63,-64.08 494.12,-54.47 497.27,-45.79"/>
<polygon fill="black" stroke="black" points="500.65,-46.74 500.77,-36.15 494.07,-44.35 500.65,-46.74"/>
</g>
</g>
</svg>
