<?xml version="1.0" encoding="UTF-8" standalone="no"?>
<!DOCTYPE svg PUBLIC "-//W3C//DTD SVG 1.1//EN"
 "http://www.w3.org/Graphics/SVG/1.1/DTD/svg11.dtd">
<!-- Generated by graphviz version 2.43.0 (0)
 -->
<!-- Title: %3 Pages: 1 -->
<svg width="746pt" height="238pt"
 viewBox="0.00 0.00 746.00 237.74" xmlns="http://www.w3.org/2000/svg" xmlns:xlink="http://www.w3.org/1999/xlink">
<g id="graph0" class="graph" transform="scale(1 1) rotate(0) translate(36 201.74)">
<title>%3</title>
<polygon fill="dimgray" stroke="transparent" points="-36,36 -36,-201.74 710,-201.74 710,36 -36,36"/>
<text text-anchor="middle" x="337" y="-150.54" font-family="Helvetica,sans-Serif" font-size="14.00">Sweep&#39;s Plan &amp; Progress</text>
<!-- start -->
<g id="node1" class="node">
<title>start</title>
</g>
<!-- 7ec50e85&#45;f51b&#45;4c4d&#45;844d&#45;99397c38157c -->
<g id="node3" class="node">
<title>7ec50e85&#45;f51b&#45;4c4d&#45;844d&#45;99397c38157c</title>
<ellipse fill="#0ee832" stroke="black" cx="224" cy="-99.87" rx="95.42" ry="26.74"/>
<text text-anchor="middle" x="224" y="-103.67" font-family="Helvetica,sans-Serif" font-size="14.00">✓ Modify</text>
<text text-anchor="middle" x="224" y="-88.67" font-family="Helvetica,sans-Serif" font-size="14.00">analyze/views.py</text>
</g>
<!-- start&#45;&gt;7ec50e85&#45;f51b&#45;4c4d&#45;844d&#45;99397c38157c -->
<g id="edge4" class="edge">
<title>start&#45;&gt;7ec50e85&#45;f51b&#45;4c4d&#45;844d&#45;99397c38157c</title>
<path fill="none" stroke="black" d="M77.66,-99.87C81.07,-99.87 97.46,-99.87 118.12,-99.87"/>
<polygon fill="black" stroke="black" points="118.22,-103.37 128.22,-99.87 118.22,-96.37 118.22,-103.37"/>
<text text-anchor="middle" x="103.02" y="-106.67" font-family="Helvetica,sans-Serif" font-size="14.00">Start</text>
</g>
<!-- end -->
<g id="node2" class="node">
<title>end</title>
</g>
<!-- 08596909&#45;ac2c&#45;4e92&#45;ad8d&#45;10ae92a3b023 -->
<g id="node4" class="node">
<title>08596909&#45;ac2c&#45;4e92&#45;ad8d&#45;10ae92a3b023</title>
<ellipse fill="#0ee832" stroke="black" cx="480" cy="-99.87" rx="95.42" ry="26.74"/>
<text text-anchor="middle" x="480" y="-103.67" font-family="Helvetica,sans-Serif" font-size="14.00">✓ Modify</text>
<text text-anchor="middle" x="480" y="-88.67" font-family="Helvetica,sans-Serif" font-size="14.00">analyze/views.py</text>
</g>
<!-- 7ec50e85&#45;f51b&#45;4c4d&#45;844d&#45;99397c38157c&#45;&gt;08596909&#45;ac2c&#45;4e92&#45;ad8d&#45;10ae92a3b023 -->
<g id="edge2" class="edge">
<title>7ec50e85&#45;f51b&#45;4c4d&#45;844d&#45;99397c38157c&#45;&gt;08596909&#45;ac2c&#45;4e92&#45;ad8d&#45;10ae92a3b023</title>
<path fill="none" stroke="black" d="M319.5,-99.87C337.75,-99.87 356,-99.87 374.25,-99.87"/>
<polygon fill="black" stroke="black" points="374.39,-103.37 384.39,-99.87 374.39,-96.37 374.39,-103.37"/>
</g>
<!-- 704c593f&#45;a73f&#45;4911&#45;b80d&#45;ca779c80e7f1 -->
<g id="node5" class="node">
<title>704c593f&#45;a73f&#45;4911&#45;b80d&#45;ca779c80e7f1</title>
<polygon fill="#0ee832" stroke="black" points="328,-36 0,-36 0,0 328,0 328,-36"/>
<text text-anchor="middle" x="164" y="-14.3" font-family="Helvetica,sans-Serif" font-size="14.00">✓ Run GitHub Actions for `analyze/views.py`</text>
</g>
<!-- 7ec50e85&#45;f51b&#45;4c4d&#45;844d&#45;99397c38157c&#45;&gt;704c593f&#45;a73f&#45;4911&#45;b80d&#45;ca779c80e7f1 -->
<g id="edge1" class="edge">
<title>7ec50e85&#45;f51b&#45;4c4d&#45;844d&#45;99397c38157c&#45;&gt;704c593f&#45;a73f&#45;4911&#45;b80d&#45;ca779c80e7f1</title>
<path fill="none" stroke="black" stroke-dasharray="5,2" d="M204.69,-73.16C197.76,-63.94 189.96,-53.56 183.06,-44.37"/>
<polygon fill="black" stroke="black" points="185.83,-42.23 177.02,-36.34 180.23,-46.43 185.83,-42.23"/>
</g>
<!-- 08596909&#45;ac2c&#45;4e92&#45;ad8d&#45;10ae92a3b023&#45;&gt;end -->
<g id="edge5" class="edge">
<title>08596909&#45;ac2c&#45;4e92&#45;ad8d&#45;10ae92a3b023&#45;&gt;end</title>
<path fill="none" stroke="black" d="M575.59,-99.87C594.42,-99.87 611.61,-99.87 622.17,-99.87"/>
<polygon fill="black" stroke="black" points="622.32,-103.37 632.32,-99.87 622.32,-96.37 622.32,-103.37"/>
<text text-anchor="middle" x="603.98" y="-106.67" font-family="Helvetica,sans-Serif" font-size="14.00">Finish</text>
</g>
<!-- a21dcba2&#45;5f70&#45;4d47&#45;a6f3&#45;511e811f2de2 -->
<g id="node6" class="node">
<title>a21dcba2&#45;5f70&#45;4d47&#45;a6f3&#45;511e811f2de2</title>
<polygon fill="#0ee832" stroke="black" points="674,-36 346,-36 346,0 674,0 674,-36"/>
<text text-anchor="middle" x="510" y="-14.3" font-family="Helvetica,sans-Serif" font-size="14.00">✓ Run GitHub Actions for `analyze/views.py`</text>
</g>
<!-- 08596909&#45;ac2c&#45;4e92&#45;ad8d&#45;10ae92a3b023&#45;&gt;a21dcba2&#45;5f70&#45;4d47&#45;a6f3&#45;511e811f2de2 -->
<g id="edge3" class="edge">
<title>08596909&#45;ac2c&#45;4e92&#45;ad8d&#45;10ae92a3b023&#45;&gt;a21dcba2&#45;5f70&#45;4d47&#45;a6f3&#45;511e811f2de2</title>
<path fill="none" stroke="black" stroke-dasharray="5,2" d="M489.82,-72.72C493.1,-63.99 496.75,-54.26 500.04,-45.51"/>
<polygon fill="black" stroke="black" points="503.32,-46.74 503.56,-36.15 496.77,-44.28 503.32,-46.74"/>
</g>
</g>
</svg>
