<?xml version="1.0" encoding="UTF-8" standalone="no"?>
<!DOCTYPE svg PUBLIC "-//W3C//DTD SVG 1.1//EN"
 "http://www.w3.org/Graphics/SVG/1.1/DTD/svg11.dtd">
<!-- Generated by graphviz version 2.43.0 (0)
 -->
<!-- Title: %3 Pages: 1 -->
<svg width="443pt" height="238pt"
 viewBox="0.00 0.00 443.00 237.74" xmlns="http://www.w3.org/2000/svg" xmlns:xlink="http://www.w3.org/1999/xlink">
<g id="graph0" class="graph" transform="scale(1 1) rotate(0) translate(36 201.74)">
<title>%3</title>
<polygon fill="dimgray" stroke="transparent" points="-36,36 -36,-201.74 407,-201.74 407,36 -36,36"/>
<text text-anchor="middle" x="185.5" y="-150.54" font-family="Helvetica,sans-Serif" font-size="14.00">Sweep&#39;s Plan &amp; Progress</text>
<!-- start -->
<g id="node1" class="node">
<title>start</title>
</g>
<!-- 2a5c94e5&#45;efc9&#45;4857&#45;b321&#45;4ec5a3a9026f -->
<g id="node3" class="node">
<title>2a5c94e5&#45;efc9&#45;4857&#45;b321&#45;4ec5a3a9026f</title>
<ellipse fill="#0ee832" stroke="black" cx="185.5" cy="-99.87" rx="124.4" ry="26.74"/>
<text text-anchor="middle" x="185.5" y="-103.67" font-family="Helvetica,sans-Serif" font-size="14.00">✓ Modify</text>
<text text-anchor="middle" x="185.5" y="-88.67" font-family="Helvetica,sans-Serif" font-size="14.00">templates/runoob.html</text>
</g>
<!-- start&#45;&gt;2a5c94e5&#45;efc9&#45;4857&#45;b321&#45;4ec5a3a9026f -->
<g id="edge2" class="edge">
<title>start&#45;&gt;2a5c94e5&#45;efc9&#45;4857&#45;b321&#45;4ec5a3a9026f</title>
<path fill="none" stroke="black" d="M10,-99.87C13.01,-99.87 29.16,-99.87 50.54,-99.87"/>
<polygon fill="black" stroke="black" points="50.7,-103.37 60.7,-99.87 50.7,-96.37 50.7,-103.37"/>
<text text-anchor="middle" x="35.52" y="-106.67" font-family="Helvetica,sans-Serif" font-size="14.00">Start</text>
</g>
<!-- end -->
<g id="node2" class="node">
<title>end</title>
</g>
<!-- 2a5c94e5&#45;efc9&#45;4857&#45;b321&#45;4ec5a3a9026f&#45;&gt;end -->
<g id="edge3" class="edge">
<title>2a5c94e5&#45;efc9&#45;4857&#45;b321&#45;4ec5a3a9026f&#45;&gt;end</title>
<path fill="none" stroke="black" d="M310.41,-99.87C329.53,-99.87 346.31,-99.87 356.65,-99.87"/>
<polygon fill="black" stroke="black" points="356.85,-103.37 366.85,-99.87 356.85,-96.37 356.85,-103.37"/>
<text text-anchor="middle" x="338.48" y="-106.67" font-family="Helvetica,sans-Serif" font-size="14.00">Finish</text>
</g>
<!-- 7fa0d815&#45;ac1e&#45;4ebe&#45;97b0&#45;950d6339ae3c -->
<g id="node4" class="node">
<title>7fa0d815&#45;ac1e&#45;4ebe&#45;97b0&#45;950d6339ae3c</title>
<polygon fill="yellow" stroke="black" points="371,-36 0,-36 0,0 371,0 371,-36"/>
<text text-anchor="middle" x="185.5" y="-14.3" font-family="Helvetica,sans-Serif" font-size="14.00">⋯ Run GitHub Actions for `templates/runoob.html`</text>
</g>
<!-- 2a5c94e5&#45;efc9&#45;4857&#45;b321&#45;4ec5a3a9026f&#45;&gt;7fa0d815&#45;ac1e&#45;4ebe&#45;97b0&#45;950d6339ae3c -->
<g id="edge1" class="edge">
<title>2a5c94e5&#45;efc9&#45;4857&#45;b321&#45;4ec5a3a9026f&#45;&gt;7fa0d815&#45;ac1e&#45;4ebe&#45;97b0&#45;950d6339ae3c</title>
<path fill="none" stroke="black" stroke-dasharray="5,2" d="M185.5,-72.72C185.5,-64.27 185.5,-54.89 185.5,-46.36"/>
<polygon fill="black" stroke="black" points="189,-46.15 185.5,-36.15 182,-46.15 189,-46.15"/>
</g>
</g>
</svg>
