<?xml version="1.0" encoding="UTF-8" standalone="no"?>
<!DOCTYPE svg PUBLIC "-//W3C//DTD SVG 1.1//EN"
 "http://www.w3.org/Graphics/SVG/1.1/DTD/svg11.dtd">
<!-- Generated by graphviz version 2.43.0 (0)
 -->
<!-- Title: %3 Pages: 1 -->
<svg width="1090pt" height="238pt"
 viewBox="0.00 0.00 1090.00 237.74" xmlns="http://www.w3.org/2000/svg" xmlns:xlink="http://www.w3.org/1999/xlink">
<g id="graph0" class="graph" transform="scale(1 1) rotate(0) translate(36 201.74)">
<title>%3</title>
<polygon fill="dimgray" stroke="transparent" points="-36,36 -36,-201.74 1054,-201.74 1054,36 -36,36"/>
<text text-anchor="middle" x="509" y="-150.54" font-family="Helvetica,sans-Serif" font-size="14.00">Sweep&#39;s Plan &amp; Progress</text>
<!-- start -->
<g id="node1" class="node">
<title>start</title>
</g>
<!-- 229134a3&#45;32db&#45;45de&#45;a47d&#45;9ed1be7260cf -->
<g id="node3" class="node">
<title>229134a3&#45;32db&#45;45de&#45;a47d&#45;9ed1be7260cf</title>
<ellipse fill="#0ee832" stroke="black" cx="225" cy="-99.87" rx="95.42" ry="26.74"/>
<text text-anchor="middle" x="225" y="-103.67" font-family="Helvetica,sans-Serif" font-size="14.00">✓ Modify</text>
<text text-anchor="middle" x="225" y="-88.67" font-family="Helvetica,sans-Serif" font-size="14.00">analyze/views.py</text>
</g>
<!-- start&#45;&gt;229134a3&#45;32db&#45;45de&#45;a47d&#45;9ed1be7260cf -->
<g id="edge6" class="edge">
<title>start&#45;&gt;229134a3&#45;32db&#45;45de&#45;a47d&#45;9ed1be7260cf</title>
<path fill="none" stroke="black" d="M78.66,-99.87C82.07,-99.87 98.46,-99.87 119.12,-99.87"/>
<polygon fill="black" stroke="black" points="119.22,-103.37 129.22,-99.87 119.22,-96.37 119.22,-103.37"/>
<text text-anchor="middle" x="104.02" y="-106.67" font-family="Helvetica,sans-Serif" font-size="14.00">Start</text>
</g>
<!-- end -->
<g id="node2" class="node">
<title>end</title>
</g>
<!-- 7abae0db&#45;fa6c&#45;4503&#45;b9b1&#45;f44c19a81efa -->
<g id="node4" class="node">
<title>7abae0db&#45;fa6c&#45;4503&#45;b9b1&#45;f44c19a81efa</title>
<ellipse fill="white" stroke="black" cx="511" cy="-99.87" rx="95.42" ry="26.74"/>
<text text-anchor="middle" x="511" y="-103.67" font-family="Helvetica,sans-Serif" font-size="14.00">▶ Modify</text>
<text text-anchor="middle" x="511" y="-88.67" font-family="Helvetica,sans-Serif" font-size="14.00">analyze/views.py</text>
</g>
<!-- 229134a3&#45;32db&#45;45de&#45;a47d&#45;9ed1be7260cf&#45;&gt;7abae0db&#45;fa6c&#45;4503&#45;b9b1&#45;f44c19a81efa -->
<g id="edge2" class="edge">
<title>229134a3&#45;32db&#45;45de&#45;a47d&#45;9ed1be7260cf&#45;&gt;7abae0db&#45;fa6c&#45;4503&#45;b9b1&#45;f44c19a81efa</title>
<path fill="none" stroke="black" d="M320.52,-99.87C348.81,-99.87 377.09,-99.87 405.38,-99.87"/>
<polygon fill="black" stroke="black" points="405.39,-103.37 415.39,-99.87 405.39,-96.37 405.39,-103.37"/>
</g>
<!-- b8d7c2cb&#45;4c06&#45;424d&#45;8e80&#45;d14c906b1802 -->
<g id="node6" class="node">
<title>b8d7c2cb&#45;4c06&#45;424d&#45;8e80&#45;d14c906b1802</title>
<polygon fill="yellow" stroke="black" points="330,-36 0,-36 0,0 330,0 330,-36"/>
<text text-anchor="middle" x="165" y="-14.3" font-family="Helvetica,sans-Serif" font-size="14.00">⋯ Run GitHub Actions for `analyze/views.py`</text>
</g>
<!-- 229134a3&#45;32db&#45;45de&#45;a47d&#45;9ed1be7260cf&#45;&gt;b8d7c2cb&#45;4c06&#45;424d&#45;8e80&#45;d14c906b1802 -->
<g id="edge1" class="edge">
<title>229134a3&#45;32db&#45;45de&#45;a47d&#45;9ed1be7260cf&#45;&gt;b8d7c2cb&#45;4c06&#45;424d&#45;8e80&#45;d14c906b1802</title>
<path fill="none" stroke="black" stroke-dasharray="5,2" d="M205.69,-73.16C198.76,-63.94 190.96,-53.56 184.06,-44.37"/>
<polygon fill="black" stroke="black" points="186.83,-42.23 178.02,-36.34 181.23,-46.43 186.83,-42.23"/>
</g>
<!-- 6c82dfd3&#45;2e25&#45;4ace&#45;9511&#45;17d2903fd1f1 -->
<g id="node5" class="node">
<title>6c82dfd3&#45;2e25&#45;4ace&#45;9511&#45;17d2903fd1f1</title>
<ellipse fill="white" stroke="black" cx="796" cy="-99.87" rx="95.42" ry="26.74"/>
<text text-anchor="middle" x="796" y="-103.67" font-family="Helvetica,sans-Serif" font-size="14.00">▶ Modify</text>
<text text-anchor="middle" x="796" y="-88.67" font-family="Helvetica,sans-Serif" font-size="14.00">analyze/views.py</text>
</g>
<!-- 7abae0db&#45;fa6c&#45;4503&#45;b9b1&#45;f44c19a81efa&#45;&gt;6c82dfd3&#45;2e25&#45;4ace&#45;9511&#45;17d2903fd1f1 -->
<g id="edge4" class="edge">
<title>7abae0db&#45;fa6c&#45;4503&#45;b9b1&#45;f44c19a81efa&#45;&gt;6c82dfd3&#45;2e25&#45;4ace&#45;9511&#45;17d2903fd1f1</title>
<path fill="none" stroke="black" d="M606.46,-99.87C634.38,-99.87 662.29,-99.87 690.21,-99.87"/>
<polygon fill="black" stroke="black" points="690.49,-103.37 700.49,-99.87 690.49,-96.37 690.49,-103.37"/>
</g>
<!-- 9ae1f5f3&#45;ec7a&#45;45a3&#45;9617&#45;a181a2dca168 -->
<g id="node7" class="node">
<title>9ae1f5f3&#45;ec7a&#45;45a3&#45;9617&#45;a181a2dca168</title>
<polygon fill="white" stroke="black" points="674,-36 348,-36 348,0 674,0 674,-36"/>
<text text-anchor="middle" x="511" y="-14.3" font-family="Helvetica,sans-Serif" font-size="14.00">▶ Run GitHub Actions for `analyze/views.py`</text>
</g>
<!-- 7abae0db&#45;fa6c&#45;4503&#45;b9b1&#45;f44c19a81efa&#45;&gt;9ae1f5f3&#45;ec7a&#45;45a3&#45;9617&#45;a181a2dca168 -->
<g id="edge3" class="edge">
<title>7abae0db&#45;fa6c&#45;4503&#45;b9b1&#45;f44c19a81efa&#45;&gt;9ae1f5f3&#45;ec7a&#45;45a3&#45;9617&#45;a181a2dca168</title>
<path fill="none" stroke="black" stroke-dasharray="5,2" d="M511,-72.72C511,-64.27 511,-54.89 511,-46.36"/>
<polygon fill="black" stroke="black" points="514.5,-46.15 511,-36.15 507.5,-46.15 514.5,-46.15"/>
</g>
<!-- 6c82dfd3&#45;2e25&#45;4ace&#45;9511&#45;17d2903fd1f1&#45;&gt;end -->
<g id="edge7" class="edge">
<title>6c82dfd3&#45;2e25&#45;4ace&#45;9511&#45;17d2903fd1f1&#45;&gt;end</title>
<path fill="none" stroke="black" d="M891.59,-99.87C910.42,-99.87 927.61,-99.87 938.17,-99.87"/>
<polygon fill="black" stroke="black" points="938.32,-103.37 948.32,-99.87 938.32,-96.37 938.32,-103.37"/>
<text text-anchor="middle" x="919.98" y="-106.67" font-family="Helvetica,sans-Serif" font-size="14.00">Finish</text>
</g>
<!-- b3d2550b&#45;524d&#45;4a9c&#45;80f4&#45;5d552e5d2fd2 -->
<g id="node8" class="node">
<title>b3d2550b&#45;524d&#45;4a9c&#45;80f4&#45;5d552e5d2fd2</title>
<polygon fill="white" stroke="black" points="1018,-36 692,-36 692,0 1018,0 1018,-36"/>
<text text-anchor="middle" x="855" y="-14.3" font-family="Helvetica,sans-Serif" font-size="14.00">▶ Run GitHub Actions for `analyze/views.py`</text>
</g>
<!-- 6c82dfd3&#45;2e25&#45;4ace&#45;9511&#45;17d2903fd1f1&#45;&gt;b3d2550b&#45;524d&#45;4a9c&#45;80f4&#45;5d552e5d2fd2 -->
<g id="edge5" class="edge">
<title>6c82dfd3&#45;2e25&#45;4ace&#45;9511&#45;17d2903fd1f1&#45;&gt;b3d2550b&#45;524d&#45;4a9c&#45;80f4&#45;5d552e5d2fd2</title>
<path fill="none" stroke="black" stroke-dasharray="5,2" d="M814.99,-73.16C821.73,-64.04 829.31,-53.77 836.05,-44.65"/>
<polygon fill="black" stroke="black" points="839.07,-46.46 842.19,-36.34 833.44,-42.3 839.07,-46.46"/>
</g>
</g>
</svg>
