<?xml version="1.0" encoding="UTF-8" standalone="no"?>
<!DOCTYPE svg PUBLIC "-//W3C//DTD SVG 1.1//EN"
 "http://www.w3.org/Graphics/SVG/1.1/DTD/svg11.dtd">
<!-- Generated by graphviz version 2.43.0 (0)
 -->
<!-- Title: %3 Pages: 1 -->
<svg width="1086pt" height="238pt"
 viewBox="0.00 0.00 1086.00 237.74" xmlns="http://www.w3.org/2000/svg" xmlns:xlink="http://www.w3.org/1999/xlink">
<g id="graph0" class="graph" transform="scale(1 1) rotate(0) translate(36 201.74)">
<title>%3</title>
<polygon fill="dimgray" stroke="transparent" points="-36,36 -36,-201.74 1050,-201.74 1050,36 -36,36"/>
<text text-anchor="middle" x="507" y="-150.54" font-family="Helvetica,sans-Serif" font-size="14.00">Sweep&#39;s Plan &amp; Progress</text>
<!-- start -->
<g id="node1" class="node">
<title>start</title>
</g>
<!-- 229134a3&#45;32db&#45;45de&#45;a47d&#45;9ed1be7260cf -->
<g id="node3" class="node">
<title>229134a3&#45;32db&#45;45de&#45;a47d&#45;9ed1be7260cf</title>
<ellipse fill="yellow" stroke="black" cx="222" cy="-99.87" rx="95.42" ry="26.74"/>
<text text-anchor="middle" x="222" y="-103.67" font-family="Helvetica,sans-Serif" font-size="14.00">⋯ Modify</text>
<text text-anchor="middle" x="222" y="-88.67" font-family="Helvetica,sans-Serif" font-size="14.00">analyze/views.py</text>
</g>
<!-- start&#45;&gt;229134a3&#45;32db&#45;45de&#45;a47d&#45;9ed1be7260cf -->
<g id="edge6" class="edge">
<title>start&#45;&gt;229134a3&#45;32db&#45;45de&#45;a47d&#45;9ed1be7260cf</title>
<path fill="none" stroke="black" d="M75.66,-99.87C79.07,-99.87 95.46,-99.87 116.12,-99.87"/>
<polygon fill="black" stroke="black" points="116.22,-103.37 126.22,-99.87 116.22,-96.37 116.22,-103.37"/>
<text text-anchor="middle" x="101.02" y="-106.67" font-family="Helvetica,sans-Serif" font-size="14.00">Start</text>
</g>
<!-- end -->
<g id="node2" class="node">
<title>end</title>
</g>
<!-- 7abae0db&#45;fa6c&#45;4503&#45;b9b1&#45;f44c19a81efa -->
<g id="node4" class="node">
<title>7abae0db&#45;fa6c&#45;4503&#45;b9b1&#45;f44c19a81efa</title>
<ellipse fill="white" stroke="black" cx="507" cy="-99.87" rx="95.42" ry="26.74"/>
<text text-anchor="middle" x="507" y="-103.67" font-family="Helvetica,sans-Serif" font-size="14.00">▶ Modify</text>
<text text-anchor="middle" x="507" y="-88.67" font-family="Helvetica,sans-Serif" font-size="14.00">analyze/views.py</text>
</g>
<!-- 229134a3&#45;32db&#45;45de&#45;a47d&#45;9ed1be7260cf&#45;&gt;7abae0db&#45;fa6c&#45;4503&#45;b9b1&#45;f44c19a81efa -->
<g id="edge2" class="edge">
<title>229134a3&#45;32db&#45;45de&#45;a47d&#45;9ed1be7260cf&#45;&gt;7abae0db&#45;fa6c&#45;4503&#45;b9b1&#45;f44c19a81efa</title>
<path fill="none" stroke="black" d="M317.46,-99.87C345.38,-99.87 373.29,-99.87 401.21,-99.87"/>
<polygon fill="black" stroke="black" points="401.49,-103.37 411.49,-99.87 401.49,-96.37 401.49,-103.37"/>
</g>
<!-- b8d7c2cb&#45;4c06&#45;424d&#45;8e80&#45;d14c906b1802 -->
<g id="node6" class="node">
<title>b8d7c2cb&#45;4c06&#45;424d&#45;8e80&#45;d14c906b1802</title>
<polygon fill="white" stroke="black" points="326,-36 0,-36 0,0 326,0 326,-36"/>
<text text-anchor="middle" x="163" y="-14.3" font-family="Helvetica,sans-Serif" font-size="14.00">▶ Run GitHub Actions for `analyze/views.py`</text>
</g>
<!-- 229134a3&#45;32db&#45;45de&#45;a47d&#45;9ed1be7260cf&#45;&gt;b8d7c2cb&#45;4c06&#45;424d&#45;8e80&#45;d14c906b1802 -->
<g id="edge1" class="edge">
<title>229134a3&#45;32db&#45;45de&#45;a47d&#45;9ed1be7260cf&#45;&gt;b8d7c2cb&#45;4c06&#45;424d&#45;8e80&#45;d14c906b1802</title>
<path fill="none" stroke="black" stroke-dasharray="5,2" d="M203.01,-73.16C196.27,-64.04 188.69,-53.77 181.95,-44.65"/>
<polygon fill="black" stroke="black" points="184.56,-42.3 175.81,-36.34 178.93,-46.46 184.56,-42.3"/>
</g>
<!-- 6c82dfd3&#45;2e25&#45;4ace&#45;9511&#45;17d2903fd1f1 -->
<g id="node5" class="node">
<title>6c82dfd3&#45;2e25&#45;4ace&#45;9511&#45;17d2903fd1f1</title>
<ellipse fill="white" stroke="black" cx="792" cy="-99.87" rx="95.42" ry="26.74"/>
<text text-anchor="middle" x="792" y="-103.67" font-family="Helvetica,sans-Serif" font-size="14.00">▶ Modify</text>
<text text-anchor="middle" x="792" y="-88.67" font-family="Helvetica,sans-Serif" font-size="14.00">analyze/views.py</text>
</g>
<!-- 7abae0db&#45;fa6c&#45;4503&#45;b9b1&#45;f44c19a81efa&#45;&gt;6c82dfd3&#45;2e25&#45;4ace&#45;9511&#45;17d2903fd1f1 -->
<g id="edge4" class="edge">
<title>7abae0db&#45;fa6c&#45;4503&#45;b9b1&#45;f44c19a81efa&#45;&gt;6c82dfd3&#45;2e25&#45;4ace&#45;9511&#45;17d2903fd1f1</title>
<path fill="none" stroke="black" d="M602.46,-99.87C630.38,-99.87 658.29,-99.87 686.21,-99.87"/>
<polygon fill="black" stroke="black" points="686.49,-103.37 696.49,-99.87 686.49,-96.37 686.49,-103.37"/>
</g>
<!-- 9ae1f5f3&#45;ec7a&#45;45a3&#45;9617&#45;a181a2dca168 -->
<g id="node7" class="node">
<title>9ae1f5f3&#45;ec7a&#45;45a3&#45;9617&#45;a181a2dca168</title>
<polygon fill="white" stroke="black" points="670,-36 344,-36 344,0 670,0 670,-36"/>
<text text-anchor="middle" x="507" y="-14.3" font-family="Helvetica,sans-Serif" font-size="14.00">▶ Run GitHub Actions for `analyze/views.py`</text>
</g>
<!-- 7abae0db&#45;fa6c&#45;4503&#45;b9b1&#45;f44c19a81efa&#45;&gt;9ae1f5f3&#45;ec7a&#45;45a3&#45;9617&#45;a181a2dca168 -->
<g id="edge3" class="edge">
<title>7abae0db&#45;fa6c&#45;4503&#45;b9b1&#45;f44c19a81efa&#45;&gt;9ae1f5f3&#45;ec7a&#45;45a3&#45;9617&#45;a181a2dca168</title>
<path fill="none" stroke="black" stroke-dasharray="5,2" d="M507,-72.72C507,-64.27 507,-54.89 507,-46.36"/>
<polygon fill="black" stroke="black" points="510.5,-46.15 507,-36.15 503.5,-46.15 510.5,-46.15"/>
</g>
<!-- 6c82dfd3&#45;2e25&#45;4ace&#45;9511&#45;17d2903fd1f1&#45;&gt;end -->
<g id="edge7" class="edge">
<title>6c82dfd3&#45;2e25&#45;4ace&#45;9511&#45;17d2903fd1f1&#45;&gt;end</title>
<path fill="none" stroke="black" d="M887.59,-99.87C906.42,-99.87 923.61,-99.87 934.17,-99.87"/>
<polygon fill="black" stroke="black" points="934.32,-103.37 944.32,-99.87 934.32,-96.37 934.32,-103.37"/>
<text text-anchor="middle" x="915.98" y="-106.67" font-family="Helvetica,sans-Serif" font-size="14.00">Finish</text>
</g>
<!-- b3d2550b&#45;524d&#45;4a9c&#45;80f4&#45;5d552e5d2fd2 -->
<g id="node8" class="node">
<title>b3d2550b&#45;524d&#45;4a9c&#45;80f4&#45;5d552e5d2fd2</title>
<polygon fill="white" stroke="black" points="1014,-36 688,-36 688,0 1014,0 1014,-36"/>
<text text-anchor="middle" x="851" y="-14.3" font-family="Helvetica,sans-Serif" font-size="14.00">▶ Run GitHub Actions for `analyze/views.py`</text>
</g>
<!-- 6c82dfd3&#45;2e25&#45;4ace&#45;9511&#45;17d2903fd1f1&#45;&gt;b3d2550b&#45;524d&#45;4a9c&#45;80f4&#45;5d552e5d2fd2 -->
<g id="edge5" class="edge">
<title>6c82dfd3&#45;2e25&#45;4ace&#45;9511&#45;17d2903fd1f1&#45;&gt;b3d2550b&#45;524d&#45;4a9c&#45;80f4&#45;5d552e5d2fd2</title>
<path fill="none" stroke="black" stroke-dasharray="5,2" d="M810.99,-73.16C817.73,-64.04 825.31,-53.77 832.05,-44.65"/>
<polygon fill="black" stroke="black" points="835.07,-46.46 838.19,-36.34 829.44,-42.3 835.07,-46.46"/>
</g>
</g>
</svg>
