<?xml version="1.0" encoding="UTF-8" standalone="no"?>
<!DOCTYPE svg PUBLIC "-//W3C//DTD SVG 1.1//EN"
 "http://www.w3.org/Graphics/SVG/1.1/DTD/svg11.dtd">
<!-- Generated by graphviz version 2.43.0 (0)
 -->
<!-- Title: %3 Pages: 1 -->
<svg width="784pt" height="238pt"
 viewBox="0.00 0.00 783.50 237.74" xmlns="http://www.w3.org/2000/svg" xmlns:xlink="http://www.w3.org/1999/xlink">
<g id="graph0" class="graph" transform="scale(1 1) rotate(0) translate(36 201.74)">
<title>%3</title>
<polygon fill="dimgray" stroke="transparent" points="-36,36 -36,-201.74 747.5,-201.74 747.5,36 -36,36"/>
<text text-anchor="middle" x="355.75" y="-150.54" font-family="Helvetica,sans-Serif" font-size="14.00">Sweep&#39;s Plan &amp; Progress</text>
<!-- start -->
<g id="node1" class="node">
<title>start</title>
</g>
<!-- f7d8d238&#45;f3bd&#45;47a7&#45;a0d9&#45;1eea915b9492 -->
<g id="node3" class="node">
<title>f7d8d238&#45;f3bd&#45;47a7&#45;a0d9&#45;1eea915b9492</title>
<ellipse fill="yellow" stroke="black" cx="238.5" cy="-99.87" rx="124.4" ry="26.74"/>
<text text-anchor="middle" x="238.5" y="-103.67" font-family="Helvetica,sans-Serif" font-size="14.00">⋯ Modify</text>
<text text-anchor="middle" x="238.5" y="-88.67" font-family="Helvetica,sans-Serif" font-size="14.00">templates/runoob.html</text>
</g>
<!-- start&#45;&gt;f7d8d238&#45;f3bd&#45;47a7&#45;a0d9&#45;1eea915b9492 -->
<g id="edge4" class="edge">
<title>start&#45;&gt;f7d8d238&#45;f3bd&#45;47a7&#45;a0d9&#45;1eea915b9492</title>
<path fill="none" stroke="black" d="M63,-99.87C66.01,-99.87 82.16,-99.87 103.54,-99.87"/>
<polygon fill="black" stroke="black" points="103.7,-103.37 113.7,-99.87 103.7,-96.37 103.7,-103.37"/>
<text text-anchor="middle" x="88.52" y="-106.67" font-family="Helvetica,sans-Serif" font-size="14.00">Start</text>
</g>
<!-- end -->
<g id="node2" class="node">
<title>end</title>
</g>
<!-- 36eb4d62&#45;619a&#45;4e98&#45;959a&#45;9e3148a58b12 -->
<g id="node4" class="node">
<title>36eb4d62&#45;619a&#45;4e98&#45;959a&#45;9e3148a58b12</title>
<ellipse fill="white" stroke="black" cx="521.5" cy="-99.87" rx="95.42" ry="26.74"/>
<text text-anchor="middle" x="521.5" y="-103.67" font-family="Helvetica,sans-Serif" font-size="14.00">▶ Modify</text>
<text text-anchor="middle" x="521.5" y="-88.67" font-family="Helvetica,sans-Serif" font-size="14.00">analyze/views.py</text>
</g>
<!-- f7d8d238&#45;f3bd&#45;47a7&#45;a0d9&#45;1eea915b9492&#45;&gt;36eb4d62&#45;619a&#45;4e98&#45;959a&#45;9e3148a58b12 -->
<g id="edge2" class="edge">
<title>f7d8d238&#45;f3bd&#45;47a7&#45;a0d9&#45;1eea915b9492&#45;&gt;36eb4d62&#45;619a&#45;4e98&#45;959a&#45;9e3148a58b12</title>
<path fill="none" stroke="black" d="M363.14,-99.87C380.64,-99.87 398.13,-99.87 415.63,-99.87"/>
<polygon fill="black" stroke="black" points="415.93,-103.37 425.93,-99.87 415.93,-96.37 415.93,-103.37"/>
</g>
<!-- 1b48ff04&#45;ab76&#45;416e&#45;bc31&#45;7814f5091e8a -->
<g id="node5" class="node">
<title>1b48ff04&#45;ab76&#45;416e&#45;bc31&#45;7814f5091e8a</title>
<polygon fill="white" stroke="black" points="367,-36 0,-36 0,0 367,0 367,-36"/>
<text text-anchor="middle" x="183.5" y="-14.3" font-family="Helvetica,sans-Serif" font-size="14.00">▶ Run GitHub Actions for `templates/runoob.html`</text>
</g>
<!-- f7d8d238&#45;f3bd&#45;47a7&#45;a0d9&#45;1eea915b9492&#45;&gt;1b48ff04&#45;ab76&#45;416e&#45;bc31&#45;7814f5091e8a -->
<g id="edge1" class="edge">
<title>f7d8d238&#45;f3bd&#45;47a7&#45;a0d9&#45;1eea915b9492&#45;&gt;1b48ff04&#45;ab76&#45;416e&#45;bc31&#45;7814f5091e8a</title>
<path fill="none" stroke="black" stroke-dasharray="5,2" d="M220.79,-73.16C214.51,-64.04 207.45,-53.77 201.17,-44.65"/>
<polygon fill="black" stroke="black" points="203.99,-42.59 195.44,-36.34 198.23,-46.56 203.99,-42.59"/>
</g>
<!-- 36eb4d62&#45;619a&#45;4e98&#45;959a&#45;9e3148a58b12&#45;&gt;end -->
<g id="edge5" class="edge">
<title>36eb4d62&#45;619a&#45;4e98&#45;959a&#45;9e3148a58b12&#45;&gt;end</title>
<path fill="none" stroke="black" d="M617.09,-99.87C635.92,-99.87 653.11,-99.87 663.67,-99.87"/>
<polygon fill="black" stroke="black" points="663.82,-103.37 673.82,-99.87 663.82,-96.37 663.82,-103.37"/>
<text text-anchor="middle" x="645.48" y="-106.67" font-family="Helvetica,sans-Serif" font-size="14.00">Finish</text>
</g>
<!-- 3c619b9c&#45;2a78&#45;4694&#45;8c13&#45;73e121bde8b3 -->
<g id="node6" class="node">
<title>3c619b9c&#45;2a78&#45;4694&#45;8c13&#45;73e121bde8b3</title>
<polygon fill="white" stroke="black" points="711.5,-36 385.5,-36 385.5,0 711.5,0 711.5,-36"/>
<text text-anchor="middle" x="548.5" y="-14.3" font-family="Helvetica,sans-Serif" font-size="14.00">▶ Run GitHub Actions for `analyze/views.py`</text>
</g>
<!-- 36eb4d62&#45;619a&#45;4e98&#45;959a&#45;9e3148a58b12&#45;&gt;3c619b9c&#45;2a78&#45;4694&#45;8c13&#45;73e121bde8b3 -->
<g id="edge3" class="edge">
<title>36eb4d62&#45;619a&#45;4e98&#45;959a&#45;9e3148a58b12&#45;&gt;3c619b9c&#45;2a78&#45;4694&#45;8c13&#45;73e121bde8b3</title>
<path fill="none" stroke="black" stroke-dasharray="5,2" d="M530.34,-72.72C533.26,-64.08 536.51,-54.47 539.44,-45.79"/>
<polygon fill="black" stroke="black" points="542.82,-46.74 542.7,-36.15 536.19,-44.5 542.82,-46.74"/>
</g>
</g>
</svg>
