<?xml version="1.0" encoding="UTF-8" standalone="no"?>
<!DOCTYPE svg PUBLIC "-//W3C//DTD SVG 1.1//EN"
 "http://www.w3.org/Graphics/SVG/1.1/DTD/svg11.dtd">
<!-- Generated by graphviz version 2.43.0 (0)
 -->
<!-- Title: %3 Pages: 1 -->
<svg width="1453pt" height="238pt"
 viewBox="0.00 0.00 1452.50 237.74" xmlns="http://www.w3.org/2000/svg" xmlns:xlink="http://www.w3.org/1999/xlink">
<g id="graph0" class="graph" transform="scale(1 1) rotate(0) translate(36 201.74)">
<title>%3</title>
<polygon fill="dimgray" stroke="transparent" points="-36,36 -36,-201.74 1416.5,-201.74 1416.5,36 -36,36"/>
<text text-anchor="middle" x="690.25" y="-150.54" font-family="Helvetica,sans-Serif" font-size="14.00">Sweep&#39;s Plan &amp; Progress</text>
<!-- start -->
<g id="node1" class="node">
<title>start</title>
</g>
<!-- fcf5d698&#45;0f39&#45;4af3&#45;a84d&#45;f7c1289aa033 -->
<g id="node3" class="node">
<title>fcf5d698&#45;0f39&#45;4af3&#45;a84d&#45;f7c1289aa033</title>
<ellipse fill="#0ee832" stroke="black" cx="225" cy="-99.87" rx="95.42" ry="26.74"/>
<text text-anchor="middle" x="225" y="-103.67" font-family="Helvetica,sans-Serif" font-size="14.00">✓ Modify</text>
<text text-anchor="middle" x="225" y="-88.67" font-family="Helvetica,sans-Serif" font-size="14.00">analyze/views.py</text>
</g>
<!-- start&#45;&gt;fcf5d698&#45;0f39&#45;4af3&#45;a84d&#45;f7c1289aa033 -->
<g id="edge8" class="edge">
<title>start&#45;&gt;fcf5d698&#45;0f39&#45;4af3&#45;a84d&#45;f7c1289aa033</title>
<path fill="none" stroke="black" d="M78.66,-99.87C82.07,-99.87 98.46,-99.87 119.12,-99.87"/>
<polygon fill="black" stroke="black" points="119.22,-103.37 129.22,-99.87 119.22,-96.37 119.22,-103.37"/>
<text text-anchor="middle" x="104.02" y="-106.67" font-family="Helvetica,sans-Serif" font-size="14.00">Start</text>
</g>
<!-- end -->
<g id="node2" class="node">
<title>end</title>
</g>
<!-- d5bd361e&#45;b9a9&#45;4af4&#45;a500&#45;ba40b5cc8d98 -->
<g id="node4" class="node">
<title>d5bd361e&#45;b9a9&#45;4af4&#45;a500&#45;ba40b5cc8d98</title>
<ellipse fill="white" stroke="black" cx="503" cy="-99.87" rx="86.03" ry="26.74"/>
<text text-anchor="middle" x="503" y="-103.67" font-family="Helvetica,sans-Serif" font-size="14.00">▶ Modify</text>
<text text-anchor="middle" x="503" y="-88.67" font-family="Helvetica,sans-Serif" font-size="14.00">analyze/urls.py</text>
</g>
<!-- fcf5d698&#45;0f39&#45;4af3&#45;a84d&#45;f7c1289aa033&#45;&gt;d5bd361e&#45;b9a9&#45;4af4&#45;a500&#45;ba40b5cc8d98 -->
<g id="edge2" class="edge">
<title>fcf5d698&#45;0f39&#45;4af3&#45;a84d&#45;f7c1289aa033&#45;&gt;d5bd361e&#45;b9a9&#45;4af4&#45;a500&#45;ba40b5cc8d98</title>
<path fill="none" stroke="black" d="M320.56,-99.87C349.14,-99.87 377.72,-99.87 406.3,-99.87"/>
<polygon fill="black" stroke="black" points="406.41,-103.37 416.41,-99.87 406.41,-96.37 406.41,-103.37"/>
</g>
<!-- 7dabf9fb&#45;5232&#45;403c&#45;82fa&#45;f9e2f7ebe5a7 -->
<g id="node7" class="node">
<title>7dabf9fb&#45;5232&#45;403c&#45;82fa&#45;f9e2f7ebe5a7</title>
<polygon fill="#0ee832" stroke="black" points="328,-36 0,-36 0,0 328,0 328,-36"/>
<text text-anchor="middle" x="164" y="-14.3" font-family="Helvetica,sans-Serif" font-size="14.00">✓ Run GitHub Actions for `analyze/views.py`</text>
</g>
<!-- fcf5d698&#45;0f39&#45;4af3&#45;a84d&#45;f7c1289aa033&#45;&gt;7dabf9fb&#45;5232&#45;403c&#45;82fa&#45;f9e2f7ebe5a7 -->
<g id="edge1" class="edge">
<title>fcf5d698&#45;0f39&#45;4af3&#45;a84d&#45;f7c1289aa033&#45;&gt;7dabf9fb&#45;5232&#45;403c&#45;82fa&#45;f9e2f7ebe5a7</title>
<path fill="none" stroke="black" stroke-dasharray="5,2" d="M205.36,-73.16C198.32,-63.94 190.4,-53.56 183.38,-44.37"/>
<polygon fill="black" stroke="black" points="186.09,-42.16 177.24,-36.34 180.53,-46.41 186.09,-42.16"/>
</g>
<!-- 1adffffe&#45;7457&#45;4865&#45;ba25&#45;144687a24652 -->
<g id="node5" class="node">
<title>1adffffe&#45;7457&#45;4865&#45;ba25&#45;144687a24652</title>
<ellipse fill="white" stroke="black" cx="862" cy="-99.87" rx="124.4" ry="26.74"/>
<text text-anchor="middle" x="862" y="-103.67" font-family="Helvetica,sans-Serif" font-size="14.00">▶ Modify</text>
<text text-anchor="middle" x="862" y="-88.67" font-family="Helvetica,sans-Serif" font-size="14.00">templates/runoob.html</text>
</g>
<!-- d5bd361e&#45;b9a9&#45;4af4&#45;a500&#45;ba40b5cc8d98&#45;&gt;1adffffe&#45;7457&#45;4865&#45;ba25&#45;144687a24652 -->
<g id="edge4" class="edge">
<title>d5bd361e&#45;b9a9&#45;4af4&#45;a500&#45;ba40b5cc8d98&#45;&gt;1adffffe&#45;7457&#45;4865&#45;ba25&#45;144687a24652</title>
<path fill="none" stroke="black" d="M589.59,-99.87C635.53,-99.87 681.46,-99.87 727.39,-99.87"/>
<polygon fill="black" stroke="black" points="727.5,-103.37 737.5,-99.87 727.5,-96.37 727.5,-103.37"/>
</g>
<!-- 86346066&#45;e4e4&#45;477d&#45;8791&#45;dc9487da444f -->
<g id="node8" class="node">
<title>86346066&#45;e4e4&#45;477d&#45;8791&#45;dc9487da444f</title>
<polygon fill="white" stroke="black" points="660,-36 346,-36 346,0 660,0 660,-36"/>
<text text-anchor="middle" x="503" y="-14.3" font-family="Helvetica,sans-Serif" font-size="14.00">▶ Run GitHub Actions for `analyze/urls.py`</text>
</g>
<!-- d5bd361e&#45;b9a9&#45;4af4&#45;a500&#45;ba40b5cc8d98&#45;&gt;86346066&#45;e4e4&#45;477d&#45;8791&#45;dc9487da444f -->
<g id="edge3" class="edge">
<title>d5bd361e&#45;b9a9&#45;4af4&#45;a500&#45;ba40b5cc8d98&#45;&gt;86346066&#45;e4e4&#45;477d&#45;8791&#45;dc9487da444f</title>
<path fill="none" stroke="black" stroke-dasharray="5,2" d="M503,-72.72C503,-64.27 503,-54.89 503,-46.36"/>
<polygon fill="black" stroke="black" points="506.5,-46.15 503,-36.15 499.5,-46.15 506.5,-46.15"/>
</g>
<!-- 01f79988&#45;5dae&#45;4cd4&#45;94ab&#45;de067b378f94 -->
<g id="node6" class="node">
<title>01f79988&#45;5dae&#45;4cd4&#45;94ab&#45;de067b378f94</title>
<ellipse fill="white" stroke="black" cx="1166" cy="-99.87" rx="88.28" ry="26.74"/>
<text text-anchor="middle" x="1166" y="-103.67" font-family="Helvetica,sans-Serif" font-size="14.00">▶ Create</text>
<text text-anchor="middle" x="1166" y="-88.67" font-family="Helvetica,sans-Serif" font-size="14.00">analyze/utils.py</text>
</g>
<!-- 1adffffe&#45;7457&#45;4865&#45;ba25&#45;144687a24652&#45;&gt;01f79988&#45;5dae&#45;4cd4&#45;94ab&#45;de067b378f94 -->
<g id="edge6" class="edge">
<title>1adffffe&#45;7457&#45;4865&#45;ba25&#45;144687a24652&#45;&gt;01f79988&#45;5dae&#45;4cd4&#45;94ab&#45;de067b378f94</title>
<path fill="none" stroke="black" d="M986.69,-99.87C1013.5,-99.87 1040.31,-99.87 1067.12,-99.87"/>
<polygon fill="black" stroke="black" points="1067.39,-103.37 1077.39,-99.87 1067.39,-96.37 1067.39,-103.37"/>
</g>
<!-- cb70efb1&#45;9f21&#45;4412&#45;93be&#45;76518efd9e7b -->
<g id="node9" class="node">
<title>cb70efb1&#45;9f21&#45;4412&#45;93be&#45;76518efd9e7b</title>
<polygon fill="white" stroke="black" points="1045.5,-36 678.5,-36 678.5,0 1045.5,0 1045.5,-36"/>
<text text-anchor="middle" x="862" y="-14.3" font-family="Helvetica,sans-Serif" font-size="14.00">▶ Run GitHub Actions for `templates/runoob.html`</text>
</g>
<!-- 1adffffe&#45;7457&#45;4865&#45;ba25&#45;144687a24652&#45;&gt;cb70efb1&#45;9f21&#45;4412&#45;93be&#45;76518efd9e7b -->
<g id="edge5" class="edge">
<title>1adffffe&#45;7457&#45;4865&#45;ba25&#45;144687a24652&#45;&gt;cb70efb1&#45;9f21&#45;4412&#45;93be&#45;76518efd9e7b</title>
<path fill="none" stroke="black" stroke-dasharray="5,2" d="M862,-72.72C862,-64.27 862,-54.89 862,-46.36"/>
<polygon fill="black" stroke="black" points="865.5,-46.15 862,-36.15 858.5,-46.15 865.5,-46.15"/>
</g>
<!-- 01f79988&#45;5dae&#45;4cd4&#45;94ab&#45;de067b378f94&#45;&gt;end -->
<g id="edge9" class="edge">
<title>01f79988&#45;5dae&#45;4cd4&#45;94ab&#45;de067b378f94&#45;&gt;end</title>
<path fill="none" stroke="black" d="M1254.72,-99.87C1273.33,-99.87 1290.51,-99.87 1301.11,-99.87"/>
<polygon fill="black" stroke="black" points="1301.31,-103.37 1311.31,-99.87 1301.31,-96.37 1301.31,-103.37"/>
<text text-anchor="middle" x="1282.94" y="-106.67" font-family="Helvetica,sans-Serif" font-size="14.00">Finish</text>
</g>
<!-- 2ef31369&#45;b569&#45;48f4&#45;8700&#45;e6cad54d64fc -->
<g id="node10" class="node">
<title>2ef31369&#45;b569&#45;48f4&#45;8700&#45;e6cad54d64fc</title>
<polygon fill="white" stroke="black" points="1380.5,-36 1063.5,-36 1063.5,0 1380.5,0 1380.5,-36"/>
<text text-anchor="middle" x="1222" y="-14.3" font-family="Helvetica,sans-Serif" font-size="14.00">▶ Run GitHub Actions for `analyze/utils.py`</text>
</g>
<!-- 01f79988&#45;5dae&#45;4cd4&#45;94ab&#45;de067b378f94&#45;&gt;2ef31369&#45;b569&#45;48f4&#45;8700&#45;e6cad54d64fc -->
<g id="edge7" class="edge">
<title>01f79988&#45;5dae&#45;4cd4&#45;94ab&#45;de067b378f94&#45;&gt;2ef31369&#45;b569&#45;48f4&#45;8700&#45;e6cad54d64fc</title>
<path fill="none" stroke="black" stroke-dasharray="5,2" d="M1184.03,-73.16C1190.42,-64.04 1197.62,-53.77 1204.01,-44.65"/>
<polygon fill="black" stroke="black" points="1206.97,-46.53 1209.84,-36.34 1201.24,-42.52 1206.97,-46.53"/>
</g>
</g>
</svg>
