<?xml version="1.0" encoding="UTF-8" standalone="no"?>
<!DOCTYPE svg PUBLIC "-//W3C//DTD SVG 1.1//EN"
 "http://www.w3.org/Graphics/SVG/1.1/DTD/svg11.dtd">
<!-- Generated by graphviz version 2.43.0 (0)
 -->
<!-- Title: %3 Pages: 1 -->
<svg width="788pt" height="238pt"
 viewBox="0.00 0.00 787.50 237.74" xmlns="http://www.w3.org/2000/svg" xmlns:xlink="http://www.w3.org/1999/xlink">
<g id="graph0" class="graph" transform="scale(1 1) rotate(0) translate(36 201.74)">
<title>%3</title>
<polygon fill="dimgray" stroke="transparent" points="-36,36 -36,-201.74 751.5,-201.74 751.5,36 -36,36"/>
<text text-anchor="middle" x="357.75" y="-150.54" font-family="Helvetica,sans-Serif" font-size="14.00">Sweep&#39;s Plan &amp; Progress</text>
<!-- start -->
<g id="node1" class="node">
<title>start</title>
</g>
<!-- f7d8d238&#45;f3bd&#45;47a7&#45;a0d9&#45;1eea915b9492 -->
<g id="node3" class="node">
<title>f7d8d238&#45;f3bd&#45;47a7&#45;a0d9&#45;1eea915b9492</title>
<ellipse fill="#0ee832" stroke="black" cx="241.5" cy="-99.87" rx="124.4" ry="26.74"/>
<text text-anchor="middle" x="241.5" y="-103.67" font-family="Helvetica,sans-Serif" font-size="14.00">✓ Modify</text>
<text text-anchor="middle" x="241.5" y="-88.67" font-family="Helvetica,sans-Serif" font-size="14.00">templates/runoob.html</text>
</g>
<!-- start&#45;&gt;f7d8d238&#45;f3bd&#45;47a7&#45;a0d9&#45;1eea915b9492 -->
<g id="edge4" class="edge">
<title>start&#45;&gt;f7d8d238&#45;f3bd&#45;47a7&#45;a0d9&#45;1eea915b9492</title>
<path fill="none" stroke="black" d="M66,-99.87C69.01,-99.87 85.16,-99.87 106.54,-99.87"/>
<polygon fill="black" stroke="black" points="106.7,-103.37 116.7,-99.87 106.7,-96.37 106.7,-103.37"/>
<text text-anchor="middle" x="91.52" y="-106.67" font-family="Helvetica,sans-Serif" font-size="14.00">Start</text>
</g>
<!-- end -->
<g id="node2" class="node">
<title>end</title>
</g>
<!-- 36eb4d62&#45;619a&#45;4e98&#45;959a&#45;9e3148a58b12 -->
<g id="node4" class="node">
<title>36eb4d62&#45;619a&#45;4e98&#45;959a&#45;9e3148a58b12</title>
<ellipse fill="white" stroke="black" cx="524.5" cy="-99.87" rx="95.42" ry="26.74"/>
<text text-anchor="middle" x="524.5" y="-103.67" font-family="Helvetica,sans-Serif" font-size="14.00">▶ Modify</text>
<text text-anchor="middle" x="524.5" y="-88.67" font-family="Helvetica,sans-Serif" font-size="14.00">analyze/views.py</text>
</g>
<!-- f7d8d238&#45;f3bd&#45;47a7&#45;a0d9&#45;1eea915b9492&#45;&gt;36eb4d62&#45;619a&#45;4e98&#45;959a&#45;9e3148a58b12 -->
<g id="edge2" class="edge">
<title>f7d8d238&#45;f3bd&#45;47a7&#45;a0d9&#45;1eea915b9492&#45;&gt;36eb4d62&#45;619a&#45;4e98&#45;959a&#45;9e3148a58b12</title>
<path fill="none" stroke="black" d="M366.14,-99.87C383.64,-99.87 401.13,-99.87 418.63,-99.87"/>
<polygon fill="black" stroke="black" points="418.93,-103.37 428.93,-99.87 418.93,-96.37 418.93,-103.37"/>
</g>
<!-- 1b48ff04&#45;ab76&#45;416e&#45;bc31&#45;7814f5091e8a -->
<g id="node5" class="node">
<title>1b48ff04&#45;ab76&#45;416e&#45;bc31&#45;7814f5091e8a</title>
<polygon fill="yellow" stroke="black" points="371,-36 0,-36 0,0 371,0 371,-36"/>
<text text-anchor="middle" x="185.5" y="-14.3" font-family="Helvetica,sans-Serif" font-size="14.00">⋯ Run GitHub Actions for `templates/runoob.html`</text>
</g>
<!-- f7d8d238&#45;f3bd&#45;47a7&#45;a0d9&#45;1eea915b9492&#45;&gt;1b48ff04&#45;ab76&#45;416e&#45;bc31&#45;7814f5091e8a -->
<g id="edge1" class="edge">
<title>f7d8d238&#45;f3bd&#45;47a7&#45;a0d9&#45;1eea915b9492&#45;&gt;1b48ff04&#45;ab76&#45;416e&#45;bc31&#45;7814f5091e8a</title>
<path fill="none" stroke="black" stroke-dasharray="5,2" d="M223.47,-73.16C217.08,-64.04 209.88,-53.77 203.49,-44.65"/>
<polygon fill="black" stroke="black" points="206.26,-42.52 197.66,-36.34 200.53,-46.53 206.26,-42.52"/>
</g>
<!-- 36eb4d62&#45;619a&#45;4e98&#45;959a&#45;9e3148a58b12&#45;&gt;end -->
<g id="edge5" class="edge">
<title>36eb4d62&#45;619a&#45;4e98&#45;959a&#45;9e3148a58b12&#45;&gt;end</title>
<path fill="none" stroke="black" d="M620.09,-99.87C638.92,-99.87 656.11,-99.87 666.67,-99.87"/>
<polygon fill="black" stroke="black" points="666.82,-103.37 676.82,-99.87 666.82,-96.37 666.82,-103.37"/>
<text text-anchor="middle" x="648.48" y="-106.67" font-family="Helvetica,sans-Serif" font-size="14.00">Finish</text>
</g>
<!-- 3c619b9c&#45;2a78&#45;4694&#45;8c13&#45;73e121bde8b3 -->
<g id="node6" class="node">
<title>3c619b9c&#45;2a78&#45;4694&#45;8c13&#45;73e121bde8b3</title>
<polygon fill="white" stroke="black" points="715.5,-36 389.5,-36 389.5,0 715.5,0 715.5,-36"/>
<text text-anchor="middle" x="552.5" y="-14.3" font-family="Helvetica,sans-Serif" font-size="14.00">▶ Run GitHub Actions for `analyze/views.py`</text>
</g>
<!-- 36eb4d62&#45;619a&#45;4e98&#45;959a&#45;9e3148a58b12&#45;&gt;3c619b9c&#45;2a78&#45;4694&#45;8c13&#45;73e121bde8b3 -->
<g id="edge3" class="edge">
<title>36eb4d62&#45;619a&#45;4e98&#45;959a&#45;9e3148a58b12&#45;&gt;3c619b9c&#45;2a78&#45;4694&#45;8c13&#45;73e121bde8b3</title>
<path fill="none" stroke="black" stroke-dasharray="5,2" d="M533.67,-72.72C536.69,-64.08 540.06,-54.47 543.11,-45.79"/>
<polygon fill="black" stroke="black" points="546.48,-46.74 546.49,-36.15 539.88,-44.43 546.48,-46.74"/>
</g>
</g>
</svg>
