<?xml version="1.0" encoding="UTF-8" standalone="no"?>
<!DOCTYPE svg PUBLIC "-//W3C//DTD SVG 1.1//EN"
 "http://www.w3.org/Graphics/SVG/1.1/DTD/svg11.dtd">
<!-- Generated by graphviz version 2.43.0 (0)
 -->
<!-- Title: %3 Pages: 1 -->
<svg width="1455pt" height="238pt"
 viewBox="0.00 0.00 1454.50 237.74" xmlns="http://www.w3.org/2000/svg" xmlns:xlink="http://www.w3.org/1999/xlink">
<g id="graph0" class="graph" transform="scale(1 1) rotate(0) translate(36 201.74)">
<title>%3</title>
<polygon fill="dimgray" stroke="transparent" points="-36,36 -36,-201.74 1418.5,-201.74 1418.5,36 -36,36"/>
<text text-anchor="middle" x="691.25" y="-150.54" font-family="Helvetica,sans-Serif" font-size="14.00">Sweep&#39;s Plan &amp; Progress</text>
<!-- start -->
<g id="node1" class="node">
<title>start</title>
</g>
<!-- fcf5d698&#45;0f39&#45;4af3&#45;a84d&#45;f7c1289aa033 -->
<g id="node3" class="node">
<title>fcf5d698&#45;0f39&#45;4af3&#45;a84d&#45;f7c1289aa033</title>
<ellipse fill="#0ee832" stroke="black" cx="226" cy="-99.87" rx="95.42" ry="26.74"/>
<text text-anchor="middle" x="226" y="-103.67" font-family="Helvetica,sans-Serif" font-size="14.00">✓ Modify</text>
<text text-anchor="middle" x="226" y="-88.67" font-family="Helvetica,sans-Serif" font-size="14.00">analyze/views.py</text>
</g>
<!-- start&#45;&gt;fcf5d698&#45;0f39&#45;4af3&#45;a84d&#45;f7c1289aa033 -->
<g id="edge8" class="edge">
<title>start&#45;&gt;fcf5d698&#45;0f39&#45;4af3&#45;a84d&#45;f7c1289aa033</title>
<path fill="none" stroke="black" d="M79.66,-99.87C83.07,-99.87 99.46,-99.87 120.12,-99.87"/>
<polygon fill="black" stroke="black" points="120.22,-103.37 130.22,-99.87 120.22,-96.37 120.22,-103.37"/>
<text text-anchor="middle" x="105.02" y="-106.67" font-family="Helvetica,sans-Serif" font-size="14.00">Start</text>
</g>
<!-- end -->
<g id="node2" class="node">
<title>end</title>
</g>
<!-- d5bd361e&#45;b9a9&#45;4af4&#45;a500&#45;ba40b5cc8d98 -->
<g id="node4" class="node">
<title>d5bd361e&#45;b9a9&#45;4af4&#45;a500&#45;ba40b5cc8d98</title>
<ellipse fill="white" stroke="black" cx="505" cy="-99.87" rx="86.03" ry="26.74"/>
<text text-anchor="middle" x="505" y="-103.67" font-family="Helvetica,sans-Serif" font-size="14.00">▶ Modify</text>
<text text-anchor="middle" x="505" y="-88.67" font-family="Helvetica,sans-Serif" font-size="14.00">analyze/urls.py</text>
</g>
<!-- fcf5d698&#45;0f39&#45;4af3&#45;a84d&#45;f7c1289aa033&#45;&gt;d5bd361e&#45;b9a9&#45;4af4&#45;a500&#45;ba40b5cc8d98 -->
<g id="edge2" class="edge">
<title>fcf5d698&#45;0f39&#45;4af3&#45;a84d&#45;f7c1289aa033&#45;&gt;d5bd361e&#45;b9a9&#45;4af4&#45;a500&#45;ba40b5cc8d98</title>
<path fill="none" stroke="black" d="M321.63,-99.87C350.57,-99.87 379.51,-99.87 408.45,-99.87"/>
<polygon fill="black" stroke="black" points="408.69,-103.37 418.69,-99.87 408.69,-96.37 408.69,-103.37"/>
</g>
<!-- 7dabf9fb&#45;5232&#45;403c&#45;82fa&#45;f9e2f7ebe5a7 -->
<g id="node7" class="node">
<title>7dabf9fb&#45;5232&#45;403c&#45;82fa&#45;f9e2f7ebe5a7</title>
<polygon fill="yellow" stroke="black" points="330,-36 0,-36 0,0 330,0 330,-36"/>
<text text-anchor="middle" x="165" y="-14.3" font-family="Helvetica,sans-Serif" font-size="14.00">⋯ Run GitHub Actions for `analyze/views.py`</text>
</g>
<!-- fcf5d698&#45;0f39&#45;4af3&#45;a84d&#45;f7c1289aa033&#45;&gt;7dabf9fb&#45;5232&#45;403c&#45;82fa&#45;f9e2f7ebe5a7 -->
<g id="edge1" class="edge">
<title>fcf5d698&#45;0f39&#45;4af3&#45;a84d&#45;f7c1289aa033&#45;&gt;7dabf9fb&#45;5232&#45;403c&#45;82fa&#45;f9e2f7ebe5a7</title>
<path fill="none" stroke="black" stroke-dasharray="5,2" d="M206.36,-73.16C199.32,-63.94 191.4,-53.56 184.38,-44.37"/>
<polygon fill="black" stroke="black" points="187.09,-42.16 178.24,-36.34 181.53,-46.41 187.09,-42.16"/>
</g>
<!-- 1adffffe&#45;7457&#45;4865&#45;ba25&#45;144687a24652 -->
<g id="node5" class="node">
<title>1adffffe&#45;7457&#45;4865&#45;ba25&#45;144687a24652</title>
<ellipse fill="white" stroke="black" cx="864" cy="-99.87" rx="124.4" ry="26.74"/>
<text text-anchor="middle" x="864" y="-103.67" font-family="Helvetica,sans-Serif" font-size="14.00">▶ Modify</text>
<text text-anchor="middle" x="864" y="-88.67" font-family="Helvetica,sans-Serif" font-size="14.00">templates/runoob.html</text>
</g>
<!-- d5bd361e&#45;b9a9&#45;4af4&#45;a500&#45;ba40b5cc8d98&#45;&gt;1adffffe&#45;7457&#45;4865&#45;ba25&#45;144687a24652 -->
<g id="edge4" class="edge">
<title>d5bd361e&#45;b9a9&#45;4af4&#45;a500&#45;ba40b5cc8d98&#45;&gt;1adffffe&#45;7457&#45;4865&#45;ba25&#45;144687a24652</title>
<path fill="none" stroke="black" d="M591.59,-99.87C637.53,-99.87 683.46,-99.87 729.39,-99.87"/>
<polygon fill="black" stroke="black" points="729.5,-103.37 739.5,-99.87 729.5,-96.37 729.5,-103.37"/>
</g>
<!-- 86346066&#45;e4e4&#45;477d&#45;8791&#45;dc9487da444f -->
<g id="node8" class="node">
<title>86346066&#45;e4e4&#45;477d&#45;8791&#45;dc9487da444f</title>
<polygon fill="white" stroke="black" points="662,-36 348,-36 348,0 662,0 662,-36"/>
<text text-anchor="middle" x="505" y="-14.3" font-family="Helvetica,sans-Serif" font-size="14.00">▶ Run GitHub Actions for `analyze/urls.py`</text>
</g>
<!-- d5bd361e&#45;b9a9&#45;4af4&#45;a500&#45;ba40b5cc8d98&#45;&gt;86346066&#45;e4e4&#45;477d&#45;8791&#45;dc9487da444f -->
<g id="edge3" class="edge">
<title>d5bd361e&#45;b9a9&#45;4af4&#45;a500&#45;ba40b5cc8d98&#45;&gt;86346066&#45;e4e4&#45;477d&#45;8791&#45;dc9487da444f</title>
<path fill="none" stroke="black" stroke-dasharray="5,2" d="M505,-72.72C505,-64.27 505,-54.89 505,-46.36"/>
<polygon fill="black" stroke="black" points="508.5,-46.15 505,-36.15 501.5,-46.15 508.5,-46.15"/>
</g>
<!-- 01f79988&#45;5dae&#45;4cd4&#45;94ab&#45;de067b378f94 -->
<g id="node6" class="node">
<title>01f79988&#45;5dae&#45;4cd4&#45;94ab&#45;de067b378f94</title>
<ellipse fill="white" stroke="black" cx="1168" cy="-99.87" rx="88.28" ry="26.74"/>
<text text-anchor="middle" x="1168" y="-103.67" font-family="Helvetica,sans-Serif" font-size="14.00">▶ Create</text>
<text text-anchor="middle" x="1168" y="-88.67" font-family="Helvetica,sans-Serif" font-size="14.00">analyze/utils.py</text>
</g>
<!-- 1adffffe&#45;7457&#45;4865&#45;ba25&#45;144687a24652&#45;&gt;01f79988&#45;5dae&#45;4cd4&#45;94ab&#45;de067b378f94 -->
<g id="edge6" class="edge">
<title>1adffffe&#45;7457&#45;4865&#45;ba25&#45;144687a24652&#45;&gt;01f79988&#45;5dae&#45;4cd4&#45;94ab&#45;de067b378f94</title>
<path fill="none" stroke="black" d="M988.69,-99.87C1015.5,-99.87 1042.31,-99.87 1069.12,-99.87"/>
<polygon fill="black" stroke="black" points="1069.39,-103.37 1079.39,-99.87 1069.39,-96.37 1069.39,-103.37"/>
</g>
<!-- cb70efb1&#45;9f21&#45;4412&#45;93be&#45;76518efd9e7b -->
<g id="node9" class="node">
<title>cb70efb1&#45;9f21&#45;4412&#45;93be&#45;76518efd9e7b</title>
<polygon fill="white" stroke="black" points="1047.5,-36 680.5,-36 680.5,0 1047.5,0 1047.5,-36"/>
<text text-anchor="middle" x="864" y="-14.3" font-family="Helvetica,sans-Serif" font-size="14.00">▶ Run GitHub Actions for `templates/runoob.html`</text>
</g>
<!-- 1adffffe&#45;7457&#45;4865&#45;ba25&#45;144687a24652&#45;&gt;cb70efb1&#45;9f21&#45;4412&#45;93be&#45;76518efd9e7b -->
<g id="edge5" class="edge">
<title>1adffffe&#45;7457&#45;4865&#45;ba25&#45;144687a24652&#45;&gt;cb70efb1&#45;9f21&#45;4412&#45;93be&#45;76518efd9e7b</title>
<path fill="none" stroke="black" stroke-dasharray="5,2" d="M864,-72.72C864,-64.27 864,-54.89 864,-46.36"/>
<polygon fill="black" stroke="black" points="867.5,-46.15 864,-36.15 860.5,-46.15 867.5,-46.15"/>
</g>
<!-- 01f79988&#45;5dae&#45;4cd4&#45;94ab&#45;de067b378f94&#45;&gt;end -->
<g id="edge9" class="edge">
<title>01f79988&#45;5dae&#45;4cd4&#45;94ab&#45;de067b378f94&#45;&gt;end</title>
<path fill="none" stroke="black" d="M1256.72,-99.87C1275.33,-99.87 1292.51,-99.87 1303.11,-99.87"/>
<polygon fill="black" stroke="black" points="1303.31,-103.37 1313.31,-99.87 1303.31,-96.37 1303.31,-103.37"/>
<text text-anchor="middle" x="1284.94" y="-106.67" font-family="Helvetica,sans-Serif" font-size="14.00">Finish</text>
</g>
<!-- 2ef31369&#45;b569&#45;48f4&#45;8700&#45;e6cad54d64fc -->
<g id="node10" class="node">
<title>2ef31369&#45;b569&#45;48f4&#45;8700&#45;e6cad54d64fc</title>
<polygon fill="white" stroke="black" points="1382.5,-36 1065.5,-36 1065.5,0 1382.5,0 1382.5,-36"/>
<text text-anchor="middle" x="1224" y="-14.3" font-family="Helvetica,sans-Serif" font-size="14.00">▶ Run GitHub Actions for `analyze/utils.py`</text>
</g>
<!-- 01f79988&#45;5dae&#45;4cd4&#45;94ab&#45;de067b378f94&#45;&gt;2ef31369&#45;b569&#45;48f4&#45;8700&#45;e6cad54d64fc -->
<g id="edge7" class="edge">
<title>01f79988&#45;5dae&#45;4cd4&#45;94ab&#45;de067b378f94&#45;&gt;2ef31369&#45;b569&#45;48f4&#45;8700&#45;e6cad54d64fc</title>
<path fill="none" stroke="black" stroke-dasharray="5,2" d="M1186.03,-73.16C1192.42,-64.04 1199.62,-53.77 1206.01,-44.65"/>
<polygon fill="black" stroke="black" points="1208.97,-46.53 1211.84,-36.34 1203.24,-42.52 1208.97,-46.53"/>
</g>
</g>
</svg>
