<?xml version="1.0" encoding="UTF-8" standalone="no"?>
<!DOCTYPE svg PUBLIC "-//W3C//DTD SVG 1.1//EN"
 "http://www.w3.org/Graphics/SVG/1.1/DTD/svg11.dtd">
<!-- Generated by graphviz version 2.43.0 (0)
 -->
<!-- Title: %3 Pages: 1 -->
<svg width="1377pt" height="165pt"
 viewBox="0.00 0.00 1377.00 164.74" xmlns="http://www.w3.org/2000/svg" xmlns:xlink="http://www.w3.org/1999/xlink">
<g id="graph0" class="graph" transform="scale(1 1) rotate(0) translate(36 128.74)">
<title>%3</title>
<polygon fill="dimgray" stroke="transparent" points="-36,36 -36,-128.74 1341,-128.74 1341,36 -36,36"/>
<text text-anchor="middle" x="652.5" y="-77.54" font-family="Helvetica,sans-Serif" font-size="14.00">Sweep&#39;s Plan &amp; Progress</text>
<!-- start -->
<g id="node1" class="node">
<title>start</title>
</g>
<!-- 620d2940&#45;80b5&#45;43a4&#45;9412&#45;50e0f181d0a7 -->
<g id="node3" class="node">
<title>620d2940&#45;80b5&#45;43a4&#45;9412&#45;50e0f181d0a7</title>
<ellipse fill="yellow" stroke="black" cx="249.5" cy="-26.87" rx="196.65" ry="26.74"/>
<text text-anchor="middle" x="249.5" y="-30.67" font-family="Helvetica,sans-Serif" font-size="14.00">⋯ Create</text>
<text text-anchor="middle" x="249.5" y="-15.67" font-family="Helvetica,sans-Serif" font-size="14.00">mnt/data/repo/templates/runoob.html</text>
</g>
<!-- start&#45;&gt;620d2940&#45;80b5&#45;43a4&#45;9412&#45;50e0f181d0a7 -->
<g id="edge3" class="edge">
<title>start&#45;&gt;620d2940&#45;80b5&#45;43a4&#45;9412&#45;50e0f181d0a7</title>
<path fill="none" stroke="black" d="M1.21,-26.87C4.68,-26.87 20.49,-26.87 42.58,-26.87"/>
<polygon fill="black" stroke="black" points="42.78,-30.37 52.78,-26.87 42.78,-23.37 42.78,-30.37"/>
<text text-anchor="middle" x="26.96" y="-33.67" font-family="Helvetica,sans-Serif" font-size="14.00">Start</text>
</g>
<!-- end -->
<g id="node2" class="node">
<title>end</title>
</g>
<!-- d22c3828&#45;6496&#45;4390&#45;93d3&#45;77c849696d52 -->
<g id="node4" class="node">
<title>d22c3828&#45;6496&#45;4390&#45;93d3&#45;77c849696d52</title>
<ellipse fill="white" stroke="black" cx="649.5" cy="-26.87" rx="168.08" ry="26.74"/>
<text text-anchor="middle" x="649.5" y="-30.67" font-family="Helvetica,sans-Serif" font-size="14.00">▶ Create</text>
<text text-anchor="middle" x="649.5" y="-15.67" font-family="Helvetica,sans-Serif" font-size="14.00">mnt/data/repo/analyze/views.py</text>
</g>
<!-- 620d2940&#45;80b5&#45;43a4&#45;9412&#45;50e0f181d0a7&#45;&gt;d22c3828&#45;6496&#45;4390&#45;93d3&#45;77c849696d52 -->
<g id="edge1" class="edge">
<title>620d2940&#45;80b5&#45;43a4&#45;9412&#45;50e0f181d0a7&#45;&gt;d22c3828&#45;6496&#45;4390&#45;93d3&#45;77c849696d52</title>
<path fill="none" stroke="black" d="M446.38,-26.87C454.46,-26.87 462.55,-26.87 470.64,-26.87"/>
<polygon fill="black" stroke="black" points="470.89,-30.37 480.89,-26.87 470.89,-23.37 470.89,-30.37"/>
</g>
<!-- b4de694b&#45;2b26&#45;4efd&#45;9ee7&#45;aba4e87b43a1 -->
<g id="node5" class="node">
<title>b4de694b&#45;2b26&#45;4efd&#45;9ee7&#45;aba4e87b43a1</title>
<ellipse fill="white" stroke="black" cx="1049.5" cy="-26.87" rx="196.65" ry="26.74"/>
<text text-anchor="middle" x="1049.5" y="-30.67" font-family="Helvetica,sans-Serif" font-size="14.00">▶ Modify</text>
<text text-anchor="middle" x="1049.5" y="-15.67" font-family="Helvetica,sans-Serif" font-size="14.00">mnt/data/repo/templates/runoob.html</text>
</g>
<!-- d22c3828&#45;6496&#45;4390&#45;93d3&#45;77c849696d52&#45;&gt;b4de694b&#45;2b26&#45;4efd&#45;9ee7&#45;aba4e87b43a1 -->
<g id="edge2" class="edge">
<title>d22c3828&#45;6496&#45;4390&#45;93d3&#45;77c849696d52&#45;&gt;b4de694b&#45;2b26&#45;4efd&#45;9ee7&#45;aba4e87b43a1</title>
<path fill="none" stroke="black" d="M817.86,-26.87C826.11,-26.87 834.37,-26.87 842.63,-26.87"/>
<polygon fill="black" stroke="black" points="842.7,-30.37 852.7,-26.87 842.7,-23.37 842.7,-30.37"/>
</g>
<!-- b4de694b&#45;2b26&#45;4efd&#45;9ee7&#45;aba4e87b43a1&#45;&gt;end -->
<g id="edge4" class="edge">
<title>b4de694b&#45;2b26&#45;4efd&#45;9ee7&#45;aba4e87b43a1&#45;&gt;end</title>
<path fill="none" stroke="black" d="M1246.32,-26.87C1266.63,-26.87 1283.56,-26.87 1293.83,-26.87"/>
<polygon fill="black" stroke="black" points="1293.87,-30.37 1303.87,-26.87 1293.87,-23.37 1293.87,-30.37"/>
<text text-anchor="middle" x="1275.04" y="-33.67" font-family="Helvetica,sans-Serif" font-size="14.00">Finish</text>
</g>
</g>
</svg>
