<?xml version="1.0" encoding="UTF-8" standalone="no"?>
<!DOCTYPE svg PUBLIC "-//W3C//DTD SVG 1.1//EN"
 "http://www.w3.org/Graphics/SVG/1.1/DTD/svg11.dtd">
<!-- Generated by graphviz version 2.43.0 (0)
 -->
<!-- Title: %3 Pages: 1 -->
<svg width="439pt" height="238pt"
 viewBox="0.00 0.00 439.00 237.74" xmlns="http://www.w3.org/2000/svg" xmlns:xlink="http://www.w3.org/1999/xlink">
<g id="graph0" class="graph" transform="scale(1 1) rotate(0) translate(36 201.74)">
<title>%3</title>
<polygon fill="dimgray" stroke="transparent" points="-36,36 -36,-201.74 403,-201.74 403,36 -36,36"/>
<text text-anchor="middle" x="183.5" y="-150.54" font-family="Helvetica,sans-Serif" font-size="14.00">Sweep&#39;s Plan &amp; Progress</text>
<!-- start -->
<g id="node1" class="node">
<title>start</title>
</g>
<!-- 2a5c94e5&#45;efc9&#45;4857&#45;b321&#45;4ec5a3a9026f -->
<g id="node3" class="node">
<title>2a5c94e5&#45;efc9&#45;4857&#45;b321&#45;4ec5a3a9026f</title>
<ellipse fill="yellow" stroke="black" cx="183.5" cy="-99.87" rx="124.4" ry="26.74"/>
<text text-anchor="middle" x="183.5" y="-103.67" font-family="Helvetica,sans-Serif" font-size="14.00">⋯ Modify</text>
<text text-anchor="middle" x="183.5" y="-88.67" font-family="Helvetica,sans-Serif" font-size="14.00">templates/runoob.html</text>
</g>
<!-- start&#45;&gt;2a5c94e5&#45;efc9&#45;4857&#45;b321&#45;4ec5a3a9026f -->
<g id="edge2" class="edge">
<title>start&#45;&gt;2a5c94e5&#45;efc9&#45;4857&#45;b321&#45;4ec5a3a9026f</title>
<path fill="none" stroke="black" d="M8,-99.87C11.01,-99.87 27.16,-99.87 48.54,-99.87"/>
<polygon fill="black" stroke="black" points="48.7,-103.37 58.7,-99.87 48.7,-96.37 48.7,-103.37"/>
<text text-anchor="middle" x="33.52" y="-106.67" font-family="Helvetica,sans-Serif" font-size="14.00">Start</text>
</g>
<!-- end -->
<g id="node2" class="node">
<title>end</title>
</g>
<!-- 2a5c94e5&#45;efc9&#45;4857&#45;b321&#45;4ec5a3a9026f&#45;&gt;end -->
<g id="edge3" class="edge">
<title>2a5c94e5&#45;efc9&#45;4857&#45;b321&#45;4ec5a3a9026f&#45;&gt;end</title>
<path fill="none" stroke="black" d="M308.41,-99.87C327.53,-99.87 344.31,-99.87 354.65,-99.87"/>
<polygon fill="black" stroke="black" points="354.85,-103.37 364.85,-99.87 354.85,-96.37 354.85,-103.37"/>
<text text-anchor="middle" x="336.48" y="-106.67" font-family="Helvetica,sans-Serif" font-size="14.00">Finish</text>
</g>
<!-- 7fa0d815&#45;ac1e&#45;4ebe&#45;97b0&#45;950d6339ae3c -->
<g id="node4" class="node">
<title>7fa0d815&#45;ac1e&#45;4ebe&#45;97b0&#45;950d6339ae3c</title>
<polygon fill="white" stroke="black" points="367,-36 0,-36 0,0 367,0 367,-36"/>
<text text-anchor="middle" x="183.5" y="-14.3" font-family="Helvetica,sans-Serif" font-size="14.00">▶ Run GitHub Actions for `templates/runoob.html`</text>
</g>
<!-- 2a5c94e5&#45;efc9&#45;4857&#45;b321&#45;4ec5a3a9026f&#45;&gt;7fa0d815&#45;ac1e&#45;4ebe&#45;97b0&#45;950d6339ae3c -->
<g id="edge1" class="edge">
<title>2a5c94e5&#45;efc9&#45;4857&#45;b321&#45;4ec5a3a9026f&#45;&gt;7fa0d815&#45;ac1e&#45;4ebe&#45;97b0&#45;950d6339ae3c</title>
<path fill="none" stroke="black" stroke-dasharray="5,2" d="M183.5,-72.72C183.5,-64.27 183.5,-54.89 183.5,-46.36"/>
<polygon fill="black" stroke="black" points="187,-46.15 183.5,-36.15 180,-46.15 187,-46.15"/>
</g>
</g>
</svg>
