<?xml version="1.0" encoding="UTF-8" standalone="no"?>
<!DOCTYPE svg PUBLIC "-//W3C//DTD SVG 1.1//EN"
 "http://www.w3.org/Graphics/SVG/1.1/DTD/svg11.dtd">
<!-- Generated by graphviz version 2.43.0 (0)
 -->
<!-- Title: %3 Pages: 1 -->
<svg width="440pt" height="238pt"
 viewBox="0.00 0.00 440.00 237.74" xmlns="http://www.w3.org/2000/svg" xmlns:xlink="http://www.w3.org/1999/xlink">
<g id="graph0" class="graph" transform="scale(1 1) rotate(0) translate(36 201.74)">
<title>%3</title>
<polygon fill="dimgray" stroke="transparent" points="-36,36 -36,-201.74 404,-201.74 404,36 -36,36"/>
<text text-anchor="middle" x="184" y="-150.54" font-family="Helvetica,sans-Serif" font-size="14.00">Sweep&#39;s Plan &amp; Progress</text>
<!-- start -->
<g id="node1" class="node">
<title>start</title>
</g>
<!-- b82d18f0&#45;1306&#45;4508&#45;8204&#45;24145490749b -->
<g id="node3" class="node">
<title>b82d18f0&#45;1306&#45;4508&#45;8204&#45;24145490749b</title>
<ellipse fill="#0ee832" stroke="black" cx="184" cy="-99.87" rx="124.4" ry="26.74"/>
<text text-anchor="middle" x="184" y="-103.67" font-family="Helvetica,sans-Serif" font-size="14.00">✓ Modify</text>
<text text-anchor="middle" x="184" y="-88.67" font-family="Helvetica,sans-Serif" font-size="14.00">templates/runoob.html</text>
</g>
<!-- start&#45;&gt;b82d18f0&#45;1306&#45;4508&#45;8204&#45;24145490749b -->
<g id="edge2" class="edge">
<title>start&#45;&gt;b82d18f0&#45;1306&#45;4508&#45;8204&#45;24145490749b</title>
<path fill="none" stroke="black" d="M8.5,-99.87C11.51,-99.87 27.66,-99.87 49.04,-99.87"/>
<polygon fill="black" stroke="black" points="49.2,-103.37 59.2,-99.87 49.2,-96.37 49.2,-103.37"/>
<text text-anchor="middle" x="34.02" y="-106.67" font-family="Helvetica,sans-Serif" font-size="14.00">Start</text>
</g>
<!-- end -->
<g id="node2" class="node">
<title>end</title>
</g>
<!-- b82d18f0&#45;1306&#45;4508&#45;8204&#45;24145490749b&#45;&gt;end -->
<g id="edge3" class="edge">
<title>b82d18f0&#45;1306&#45;4508&#45;8204&#45;24145490749b&#45;&gt;end</title>
<path fill="none" stroke="black" d="M308.91,-99.87C328.03,-99.87 344.81,-99.87 355.15,-99.87"/>
<polygon fill="black" stroke="black" points="355.35,-103.37 365.35,-99.87 355.35,-96.37 355.35,-103.37"/>
<text text-anchor="middle" x="336.98" y="-106.67" font-family="Helvetica,sans-Serif" font-size="14.00">Finish</text>
</g>
<!-- b565462d&#45;6500&#45;4cdc&#45;81b1&#45;525c557f4f10 -->
<g id="node4" class="node">
<title>b565462d&#45;6500&#45;4cdc&#45;81b1&#45;525c557f4f10</title>
<polygon fill="#0ee832" stroke="black" points="368,-36 0,-36 0,0 368,0 368,-36"/>
<text text-anchor="middle" x="184" y="-14.3" font-family="Helvetica,sans-Serif" font-size="14.00">✓ Run GitHub Actions for `templates/runoob.html`</text>
</g>
<!-- b82d18f0&#45;1306&#45;4508&#45;8204&#45;24145490749b&#45;&gt;b565462d&#45;6500&#45;4cdc&#45;81b1&#45;525c557f4f10 -->
<g id="edge1" class="edge">
<title>b82d18f0&#45;1306&#45;4508&#45;8204&#45;24145490749b&#45;&gt;b565462d&#45;6500&#45;4cdc&#45;81b1&#45;525c557f4f10</title>
<path fill="none" stroke="black" stroke-dasharray="5,2" d="M184,-72.72C184,-64.27 184,-54.89 184,-46.36"/>
<polygon fill="black" stroke="black" points="187.5,-46.15 184,-36.15 180.5,-46.15 187.5,-46.15"/>
</g>
</g>
</svg>
